<svg xmlns="http://www.w3.org/2000/svg" width="700" height="792" class="marks" viewBox="0 0 700 792"><path fill="#fffbf5" d="M0 0h700v792H0z"/><g fill="none" stroke-miterlimit="10" aria-roledescription="group mark container" class="mark-group role-frame root"><path d="M259 144h435z" aria-hidden="true" class="background"/><g aria-roledescription="group mark container" class="mark-group role-scope concat_0_group"><path fill="#fffbf5" d="M259 144h435v125H259Z" aria-hidden="true" class="background"/><g aria-hidden="true" class="mark-group role-axis"><path stroke="#eaeaea" d="M259.5 269.5v-125m62 125v-125m62 125v-125m62 125v-125m63 125v-125m62 125v-125m62 125v-125m62 125v-125" class="mark-rule role-axis-grid" pointer-events="none"/></g><g aria-label="X-axis for a linear scale with values from 0 to 35" aria-roledescription="axis" class="mark-group role-axis"><path stroke="#292b2b" d="M259.5 269.5h435" class="mark-rule role-axis-domain" pointer-events="none"/></g><g aria-label="Y-axis for a discrete scale with 5 values: Solar only, Plus price level and rank, Plus imbalance spread, Plus the true battery (oracle), Plus prices from 7 days earlier (control)" aria-roledescription="axis" class="mark-group role-axis" pointer-events="none"><path stroke="#292b2b" d="M259.5 158.5h-5m5 24h-5m5 24h-5m5 24h-5m5 24h-5" class="mark-rule role-axis-tick"/><g fill="#292b2b" class="mark-text role-axis-label" font-family="Matter Semi Mono, Roboto Mono, monospace" font-size="10" text-anchor="end"><text transform="translate(252.5 161.4)">Solar only</text><text transform="translate(252.5 185.5)">Plus price level and rank</text><text transform="translate(252.5 209.5)">Plus imbalance spread</text><text transform="translate(252.5 233.5)">Plus the true battery (oracle)</text><text transform="translate(252.5 257.6)">Plus prices from 7 days earlier (control)</text></g><path stroke="#292b2b" d="M259.5 144.5v125" class="mark-rule role-axis-domain"/></g><g stroke-width="2" aria-hidden="true" class="mark-rule role-mark concat_0_layer_0_marks"><path stroke="#ff4901" d="M583.1 152h79.8m-188.2 24h58.4M471 200h60.4M391 224.1h109.5m66.9 24.1h42.3"/><path stroke="#306bff" d="M596.4 158.4h95.3M490 182.5h59.2m-71.4 24H547m-156.6 24h110.1m70.5 24.1h49"/><path stroke="#b701ff" d="M545.5 164.8H577m-162.8 24.1h98.1M410.4 213h101.2m-121.2 24h110.2m-46 24h71.2"/></g><g aria-hidden="true" class="mark-symbol role-mark concat_0_layer_1_marks"><path fill="#ff4901" d="M628.8 152a3.7 3.7 0 1 1-7.4 0 3.7 3.7 0 1 1 7.4 0m-125.6 24a3.7 3.7 0 1 1-7.4 0 3.7 3.7 0 1 1 7.4 0m-3.6 24a3.7 3.7 0 1 1-7.4 0 3.7 3.7 0 1 1 7.4 0m-65.3 24.1a3.7 3.7 0 1 1-7.4 0 3.7 3.7 0 1 1 7.4 0m159 24.1a3.7 3.7 0 1 1-7.4 0 3.7 3.7 0 1 1 7.4 0" opacity=".7"/><path fill="#306bff" d="m646.9 158.4 3.7-3.7 3.7 3.7-3.7 3.7Zm-129.3 24.1 3.7-3.7 3.7 3.7-3.7 3.7Zm-7.6 24 3.8-3.7 3.7 3.7-3.7 3.7Zm-83.3 24 3.7-3.7 3.7 3.7-3.7 3.7Zm163 24.1 3.7-3.7 3.7 3.7-3.7 3.7Z" opacity=".7"/><path fill="#b701ff" d="M560.4 161.1h7.5v7.4h-7.5Zm-107.2 24.1h7.4v7.4h-7.4Zm-3.5 24h7.4v7.4h-7.4Zm-23 24h7.4v7.5h-7.4Zm56.1 24.1h7.4v7.4h-7.4Z" opacity=".7"/></g><g class="mark-group role-title"><text fill="#292b2b" aria-label="Title text 'With the Lakeside battery'" aria-roledescription="title" class="mark-text role-title-text" font-family="Matter XH, DM Sans, sans-serif" font-size="11" pointer-events="none" transform="translate(6 140)">With the Lakeside battery</text></g></g><g aria-roledescription="group mark container" class="mark-group role-scope concat_1_group"><path fill="#fffbf5" d="M259 306h435v125H259Z" aria-hidden="true" class="background"/><g aria-hidden="true" class="mark-group role-axis"><path stroke="#eaeaea" d="M259.5 431.5v-125m62 125v-125m62 125v-125m62 125v-125m63 125v-125m62 125v-125m62 125v-125m62 125v-125" class="mark-rule role-axis-grid" pointer-events="none"/></g><g aria-label="X-axis for a linear scale with values from 0 to 35" aria-roledescription="axis" class="mark-group role-axis"><path stroke="#292b2b" d="M259.5 431.5h435" class="mark-rule role-axis-domain" pointer-events="none"/></g><g aria-label="Y-axis for a discrete scale with 5 values: Solar only, Plus price level and rank, Plus imbalance spread, Plus the true battery (oracle), Plus prices from 7 days earlier (control)" aria-roledescription="axis" class="mark-group role-axis" pointer-events="none"><path stroke="#292b2b" d="M259.5 320.5h-5m5 24h-5m5 24h-5m5 24h-5m5 24h-5" class="mark-rule role-axis-tick"/><g fill="#292b2b" class="mark-text role-axis-label" font-family="Matter Semi Mono, Roboto Mono, monospace" font-size="10" text-anchor="end"><text transform="translate(252.5 323.4)">Solar only</text><text transform="translate(252.5 347.5)">Plus price level and rank</text><text transform="translate(252.5 371.5)">Plus imbalance spread</text><text transform="translate(252.5 395.5)">Plus the true battery (oracle)</text><text transform="translate(252.5 419.6)">Plus prices from 7 days earlier (control)</text></g><path stroke="#292b2b" d="M259.5 306.5v125" class="mark-rule role-axis-domain"/></g><g stroke-width="2" aria-hidden="true" class="mark-rule role-mark concat_1_layer_0_marks"><path stroke="#ff4901" d="M583.1 314h79.8m-224.6 24h90.2M435 362h92m-136.1 24.1h109.6m79.6 24.1h70.1"/><path stroke="#306bff" d="M580.5 320.4h52m-199 24.1H520m-88.6 24h87.7m-128.8 24h110.3m-26.8 24.1h61.6"/><path stroke="#b701ff" d="M463 326.8h73m-131.2 24.1h107.5M403.6 375h108.6m-121.8 24h110.2m-78.3 24h96.4"/></g><g aria-hidden="true" class="mark-symbol role-mark concat_1_layer_1_marks"><path fill="#ff4901" d="M628.8 314a3.7 3.7 0 1 1-7.4 0 3.7 3.7 0 1 1 7.4 0M479 338a3.7 3.7 0 1 1-7.5 0 3.7 3.7 0 1 1 7.5 0m-2.3 24a3.7 3.7 0 1 1-7.4 0 3.7 3.7 0 1 1 7.4 0M434 386.1a3.7 3.7 0 1 1-7.4 0 3.7 3.7 0 1 1 7.4 0m184.8 24.1a3.7 3.7 0 1 1-7.4 0 3.7 3.7 0 1 1 7.4 0" opacity=".7"/><path fill="#306bff" d="m606.4 320.4 3.7-3.7 3.7 3.7-3.7 3.7Zm-140.5 24.1 3.7-3.7 3.7 3.7-3.7 3.7Zm-1.5 24 3.7-3.7 3.7 3.7-3.7 3.7Zm-37.9 24 3.7-3.7 3.7 3.7-3.7 3.7Zm71.5 24.1 3.7-3.7 3.7 3.7-3.7 3.7Z" opacity=".7"/><path fill="#b701ff" d="M486.5 323.1h7.4v7.4h-7.4Zm-43.3 24.1h7.4v7.4h-7.4Zm-.9 24h7.4v7.4h-7.4Zm-15.8 24h7.5v7.5h-7.5Zm29.5 24.1h7.5v7.4H456Z" opacity=".7"/></g><g class="mark-group role-title"><text fill="#292b2b" aria-label="Title text 'With the Dollymans battery'" aria-roledescription="title" class="mark-text role-title-text" font-family="Matter XH, DM Sans, sans-serif" font-size="11" pointer-events="none" transform="translate(6 302)">With the Dollymans battery</text></g></g><g aria-roledescription="group mark container" class="mark-group role-scope concat_2_group"><path fill="#fffbf5" d="M259 468h435v125H259Z" aria-hidden="true" class="background"/><g aria-hidden="true" class="mark-group role-axis"><path stroke="#eaeaea" d="M259.5 593.5v-125m62 125v-125m62 125v-125m62 125v-125m63 125v-125m62 125v-125m62 125v-125m62 125v-125" class="mark-rule role-axis-grid" pointer-events="none"/></g><g aria-label="X-axis for a linear scale with values from 0 to 35" aria-roledescription="axis" class="mark-group role-axis"><path stroke="#292b2b" d="M259.5 593.5h435" class="mark-rule role-axis-domain" pointer-events="none"/></g><g aria-label="Y-axis for a discrete scale with 5 values: Solar only, Plus price level and rank, Plus imbalance spread, Plus the true battery (oracle), Plus prices from 7 days earlier (control)" aria-roledescription="axis" class="mark-group role-axis" pointer-events="none"><path stroke="#292b2b" d="M259.5 482.5h-5m5 24h-5m5 24h-5m5 24h-5m5 24h-5" class="mark-rule role-axis-tick"/><g fill="#292b2b" class="mark-text role-axis-label" font-family="Matter Semi Mono, Roboto Mono, monospace" font-size="10" text-anchor="end"><text transform="translate(252.5 485.4)">Solar only</text><text transform="translate(252.5 509.5)">Plus price level and rank</text><text transform="translate(252.5 533.5)">Plus imbalance spread</text><text transform="translate(252.5 557.5)">Plus the true battery (oracle)</text><text transform="translate(252.5 581.6)">Plus prices from 7 days earlier (control)</text></g><path stroke="#292b2b" d="M259.5 468.5v125" class="mark-rule role-axis-domain"/></g><g stroke-width="2" aria-hidden="true" class="mark-rule role-mark concat_2_layer_0_marks"><path stroke="#ff4901" d="M583.1 476h79.8M462 500h82.5m-120 24h101.1m-134.8 24.1h109.8m80.7 24.1h72.3"/><path stroke="#306bff" d="M593.8 482.4h85m-258.4 24.1h95.7m-103.7 24h102m-124.1 24h110.4m7.3 24.1h45.1"/><path stroke="#b701ff" d="M485 488.8h59.5m-140.7 24.1h107M401.6 537h108.2m-119.5 24h110.4M426 585h96"/></g><g aria-hidden="true" class="mark-symbol role-mark concat_2_layer_1_marks"><path fill="#ff4901" d="M628.8 476a3.7 3.7 0 1 1-7.4 0 3.7 3.7 0 1 1 7.4 0M512 500a3.7 3.7 0 1 1-7.3 0 3.7 3.7 0 1 1 7.4 0m-43.9 24a3.7 3.7 0 1 1-7.5 0 3.7 3.7 0 1 1 7.5 0m-34 24.1a3.7 3.7 0 1 1-7.4 0 3.7 3.7 0 1 1 7.4 0m187.5 24.1a3.7 3.7 0 1 1-7.4 0 3.7 3.7 0 1 1 7.4 0" opacity=".7"/><path fill="#306bff" d="m640 482.4 3.7-3.7 3.7 3.7-3.7 3.7Zm-182.5 24.1 3.7-3.7 3.7 3.7-3.7 3.7Zm-7.7 24 3.7-3.7 3.7 3.7-3.7 3.7Zm-23.2 24 3.7-3.7 3.7 3.7-3.7 3.7Zm102 24.1 3.7-3.7 3.7 3.7-3.7 3.7Z" opacity=".7"/><path fill="#b701ff" d="M503.1 485.1h7.5v7.4H503Zm-60.6 24.1h7.5v7.4h-7.5Zm-2.8 24h7.4v7.4h-7.4Zm-13 24h7.4v7.5h-7.4Zm34.6 24.1h7.4v7.4h-7.4Z" opacity=".7"/></g><g class="mark-group role-title"><text fill="#292b2b" aria-label="Title text 'With the Thurrock battery'" aria-roledescription="title" class="mark-text role-title-text" font-family="Matter XH, DM Sans, sans-serif" font-size="11" pointer-events="none" transform="translate(6 464)">With the Thurrock battery</text></g></g><g aria-roledescription="group mark container" class="mark-group role-scope concat_3_group"><path fill="#fffbf5" d="M259 630h435v125H259Z" aria-hidden="true" class="background"/><g aria-hidden="true" class="mark-group role-axis"><path stroke="#eaeaea" d="M259.5 755.5v-125m62 125v-125m62 125v-125m62 125v-125m63 125v-125m62 125v-125m62 125v-125m62 125v-125" class="mark-rule role-axis-grid" pointer-events="none"/></g><g aria-label="X-axis titled 'Mean absolute error of the recovered solar (% of true solar p99; smaller is better)' for a linear scale with values from 0 to 35" aria-roledescription="axis" class="mark-group role-axis" pointer-events="none"><path stroke="#292b2b" d="M259.5 755.5v5m62-5v5m62-5v5m62-5v5m63-5v5m62-5v5m62-5v5m62-5v5" class="mark-rule role-axis-tick"/><g fill="#292b2b" class="mark-text role-axis-label" font-family="Matter Semi Mono, Roboto Mono, monospace" font-size="10"><text transform="translate(259.5 770.5)">0</text><text text-anchor="middle" transform="translate(321.6 770.5)">5</text><text text-anchor="middle" transform="translate(383.8 770.5)">10</text><text text-anchor="middle" transform="translate(446 770.5)">15</text><text text-anchor="middle" transform="translate(508 770.5)">20</text><text text-anchor="middle" transform="translate(570.2 770.5)">25</text><text text-anchor="middle" transform="translate(632.4 770.5)">30</text><text text-anchor="end" transform="translate(694.5 770.5)">35</text></g><path stroke="#292b2b" d="M259.5 755.5h435" class="mark-rule role-axis-domain"/><text fill="#292b2b" class="mark-text role-axis-title" font-family="Matter XH, DM Sans, sans-serif" font-size="11" text-anchor="middle" transform="translate(477 785.5)">Mean absolute error of the recovered solar (% of true solar p99; smaller is better)</text></g><g aria-label="Y-axis for a discrete scale with 5 values: Solar only, Plus price level and rank, Plus imbalance spread, Plus the true battery (oracle), Plus prices from 7 days earlier (control)" aria-roledescription="axis" class="mark-group role-axis" pointer-events="none"><path stroke="#292b2b" d="M259.5 644.5h-5m5 24h-5m5 24h-5m5 24h-5m5 24h-5" class="mark-rule role-axis-tick"/><g fill="#292b2b" class="mark-text role-axis-label" font-family="Matter Semi Mono, Roboto Mono, monospace" font-size="10" text-anchor="end"><text transform="translate(252.5 647.4)">Solar only</text><text transform="translate(252.5 671.5)">Plus price level and rank</text><text transform="translate(252.5 695.5)">Plus imbalance spread</text><text transform="translate(252.5 719.5)">Plus the true battery (oracle)</text><text transform="translate(252.5 743.6)">Plus prices from 7 days earlier (control)</text></g><path stroke="#292b2b" d="M259.5 630.5v125" class="mark-rule role-axis-domain"/></g><g stroke-width="2" aria-hidden="true" class="mark-rule role-mark concat_3_layer_0_marks"><path stroke="#ff4901" d="M581.7 638h67.2m-75.8 24h86.7M566 686h77m-252.2 24.1h109.7m-1.4 24.1h63"/><path stroke="#306bff" d="M583.7 644.4h55.7m-129.2 24.1h36.6m-37.2 24h37m-156.3 24h110.3m37 24.1h23"/><path stroke="#b701ff" d="M577 650.8h36.7m-170.5 24.1h77.4M428.9 699H518m-127.8 24h110.4m-13.3 24h47"/></g><g aria-hidden="true" class="mark-symbol role-mark concat_3_layer_1_marks"><path fill="#ff4901" d="M621.8 638a3.7 3.7 0 1 1-7.4 0 3.7 3.7 0 1 1 7.4 0m-1.6 24a3.7 3.7 0 1 1-7.4 0 3.7 3.7 0 1 1 7.4 0m-12 24a3.7 3.7 0 1 1-7.5 0 3.7 3.7 0 1 1 7.5 0M434 710.1a3.7 3.7 0 1 1-7.3 0 3.7 3.7 0 1 1 7.4 0m95.5 24.1a3.7 3.7 0 1 1-7.4 0 3.7 3.7 0 1 1 7.4 0" opacity=".7"/><path fill="#306bff" d="m611.1 644.4 3.7-3.7 3.7 3.7-3.7 3.7Zm-87.3 24.1 3.7-3.7 3.7 3.7-3.7 3.7Zm-.4 24 3.7-3.7 3.7 3.7-3.7 3.7Zm-96.8 24 3.7-3.7 3.7 3.7-3.7 3.7Zm118.8 24.1 3.7-3.7 3.7 3.7-3.7 3.7Z" opacity=".7"/><path fill="#b701ff" d="M592.3 647.1h7.4v7.4h-7.4Zm-122.7 24.1h7.4v7.4h-7.4Zm-8.1 24h7.4v7.4h-7.4Zm-34.9 24h7.4v7.5h-7.4Zm76.1 24.1h7.4v7.4h-7.4Z" opacity=".7"/></g><g class="mark-group role-title"><text fill="#292b2b" aria-label="Title text 'With the Ocker Hill battery'" aria-roledescription="title" class="mark-text role-title-text" font-family="Matter XH, DM Sans, sans-serif" font-size="11" pointer-events="none" transform="translate(6 626)">With the Ocker Hill battery</text></g></g><g aria-label="Symbol legend for shape, fill color and stroke color with 3 values: Solar is 10%, Solar is 25%, Solar is 50%" aria-roledescription="legend" class="mark-group role-legend"><path d="M259 100h289v13H259Z" aria-hidden="true" class="background" pointer-events="none"/><g class="mark-group role-legend-entry"><g aria-roledescription="group mark container" class="mark-group role-scope" pointer-events="none"><path d="M259 100.3h88v12.5h-88Z" aria-hidden="true" class="background"/><path fill="#ff4901" stroke="#ff4901" stroke-width="1.5" d="M270 106.3a5 5 0 1 1-10 0 5 5 0 1 1 10 0" class="mark-symbol role-legend-symbol"/><text fill="#292b2b" class="mark-text role-legend-label" font-family="Matter Semi Mono, Roboto Mono, monospace" font-size="10" transform="translate(275 109.3)">Solar is 10%</text><path d="M359 100.3h88v12.5h-88Z" aria-hidden="true" class="background"/><path fill="#306bff" stroke="#306bff" stroke-width="1.5" d="m360 106.3 5-5 5 5-5 5Z" class="mark-symbol role-legend-symbol"/><text fill="#292b2b" class="mark-text role-legend-label" font-family="Matter Semi Mono, Roboto Mono, monospace" font-size="10" transform="translate(375 109.3)">Solar is 25%</text><path d="M459 100.3h88v12.5h-88Z" aria-hidden="true" class="background"/><path fill="#b701ff" stroke="#b701ff" stroke-width="1.5" d="M460 101.3h10v10h-10Z" class="mark-symbol role-legend-symbol"/><text fill="#292b2b" class="mark-text role-legend-label" font-family="Matter Semi Mono, Roboto Mono, monospace" font-size="10" transform="translate(475 109.3)">Solar is 50%</text></g></g></g><g fill="#292b2b" class="mark-group role-title" font-family="Matter XH, DM Sans, sans-serif" pointer-events="none"><text aria-label="Title text 'Figure 8: Price regressors cut the solar error by about 8 points, but prices from another week cut it by about 5'" aria-roledescription="title" class="mark-text role-title-text" font-size="18" transform="translate(6 19)"><tspan>Figure 8: Price regressors cut the solar error by about 8 points, but</tspan><tspan x="0" dy="20">prices from another week cut it by about 5</tspan></text><text aria-label="Subtitle text 'Regional sky. Dot: mean over the 4 solar sets. Line: 95% interval from resampling the 4 solar sets, so it is wide and covers only these four. The true-battery fit (oracle) is the upper bound. The change from the solar-only fit to the price fit (A1 minus A0) is the planned contrast.'" aria-roledescription="subtitle" class="mark-text role-title-subtitle" font-size="11" transform="translate(6 58)"><tspan>Regional sky. Dot: mean over the 4 solar sets. Line: 95% interval from resampling the 4 solar sets, so it is wide</tspan><tspan x="0" dy="13">and covers only these four. The true-battery fit (oracle) is the upper bound. The change from the solar-only fit to</tspan><tspan x="0" dy="13">the price fit (A1 minus A0) is the planned contrast.</tspan></text></g></g></svg>
