<svg xmlns="http://www.w3.org/2000/svg" width="607" height="434" class="marks" viewBox="0 0 607 434"><path fill="#fffbf5" d="M0 0h607v434H0z"/><g fill="none" stroke-miterlimit="10" aria-roledescription="group mark container" class="mark-group role-frame root"><path d="M100 104h370z" aria-hidden="true" class="background"/><g aria-roledescription="group mark container" class="mark-group role-scope concat_0_group"><path fill="#fffbf5" d="M100 104h370v110H100Z" aria-hidden="true" class="background"/><g aria-hidden="true" class="mark-group role-axis"><path stroke="#eaeaea" d="M100.5 214.5v-110m46 110v-110m47 110v-110m46 110v-110m46 110v-110m46 110v-110m47 110v-110m46 110v-110m46 110v-110" class="mark-rule role-axis-grid" pointer-events="none"/></g><g aria-label="X-axis titled 'Rows' for a linear scale with values from 0 to 160" aria-roledescription="axis" class="mark-group role-axis" pointer-events="none"><path stroke="#292b2b" d="M100.5 214.5v5m46-5v5m47-5v5m46-5v5m46-5v5m46-5v5m47-5v5m46-5v5m46-5v5" class="mark-rule role-axis-tick"/><g fill="#292b2b" class="mark-text role-axis-label" font-family="Matter Semi Mono, Roboto Mono, monospace" font-size="10"><text transform="translate(100.5 229.5)">0</text><text text-anchor="middle" transform="translate(146.8 229.5)">20</text><text text-anchor="middle" transform="translate(193 229.5)">40</text><text text-anchor="middle" transform="translate(239.3 229.5)">60</text><text text-anchor="middle" transform="translate(285.5 229.5)">80</text><text text-anchor="middle" transform="translate(331.8 229.5)">100</text><text text-anchor="middle" transform="translate(378 229.5)">120</text><text text-anchor="middle" transform="translate(424.3 229.5)">140</text><text text-anchor="end" transform="translate(470.5 229.5)">160</text></g><path stroke="#292b2b" d="M100.5 214.5h370" class="mark-rule role-axis-domain"/><text fill="#292b2b" class="mark-text role-axis-title" font-family="Matter XH, DM Sans, sans-serif" font-size="11" text-anchor="middle" transform="translate(285.5 244.5)">Rows</text></g><g aria-label="Y-axis titled 'Export size of the row' for a discrete scale with 4 values: under 1 MW, 1 to 10 MW, 10 to 50 MW, 50 to 100 MW" aria-roledescription="axis" class="mark-group role-axis" pointer-events="none"><path stroke="#292b2b" d="M100.5 117.5h-5m5 28h-5m5 27h-5m5 28h-5" class="mark-rule role-axis-tick"/><g fill="#292b2b" class="mark-text role-axis-label" font-family="Matter Semi Mono, Roboto Mono, monospace" font-size="10" text-anchor="end"><text transform="translate(93.5 120.8)">under 1 MW</text><text transform="translate(93.5 148.3)">1 to 10 MW</text><text transform="translate(93.5 175.8)">10 to 50 MW</text><text transform="translate(93.5 203.3)">50 to 100 MW</text></g><path stroke="#292b2b" d="M100.5 104.5v110" class="mark-rule role-axis-domain"/><text fill="#292b2b" class="mark-text role-axis-title" font-family="Matter XH, DM Sans, sans-serif" font-size="11" text-anchor="middle" transform="rotate(-90 87.5 72)">Export size of the row</text></g><path fill="#ff4901" d="M100 160.4h46.3V185H100Zm0-27.5h32.4v24.7H100Zm0 55h2.3v24.7H100Zm0-82.5h326V130H100Z" aria-hidden="true" class="mark-rect role-mark concat_0_marks"/><g class="mark-group role-title"><text fill="#292b2b" aria-label="Title text 'Connected storage rows in the Embedded Capacity Register'" aria-roledescription="title" class="mark-text role-title-text" font-family="Matter XH, DM Sans, sans-serif" font-size="12" pointer-events="none" transform="translate(6 97)">Connected storage rows in the Embedded Capacity Register</text></g></g><g aria-roledescription="group mark container" class="mark-group role-scope concat_1_group"><path fill="#fffbf5" d="M100 287h370v110H100Z" aria-hidden="true" class="background"/><g aria-hidden="true" class="mark-group role-axis"><path stroke="#eaeaea" d="M100.5 397.5v-110m37 110v-110m37 110v-110m37 110v-110m37 110v-110m37 110v-110m37 110v-110m37 110v-110m37 110v-110m37 110v-110m37 110v-110" class="mark-rule role-axis-grid" pointer-events="none"/></g><g aria-label="X-axis titled 'Export capacity (MW)' for a linear scale with values from 0 to 500" aria-roledescription="axis" class="mark-group role-axis" pointer-events="none"><path stroke="#292b2b" d="M100.5 397.5v5m37-5v5m37-5v5m37-5v5m37-5v5m37-5v5m37-5v5m37-5v5m37-5v5m37-5v5m37-5v5" class="mark-rule role-axis-tick"/><g fill="#292b2b" class="mark-text role-axis-label" font-family="Matter Semi Mono, Roboto Mono, monospace" font-size="10"><text transform="translate(100.5 412.5)">0</text><text text-anchor="middle" transform="translate(137.5 412.5)">50</text><text text-anchor="middle" transform="translate(174.5 412.5)">100</text><text text-anchor="middle" transform="translate(211.5 412.5)">150</text><text text-anchor="middle" transform="translate(248.5 412.5)">200</text><text text-anchor="middle" transform="translate(285.5 412.5)">250</text><text text-anchor="middle" transform="translate(322.5 412.5)">300</text><text text-anchor="middle" transform="translate(359.5 412.5)">350</text><text text-anchor="middle" transform="translate(396.5 412.5)">400</text><text text-anchor="middle" transform="translate(433.5 412.5)">450</text><text text-anchor="end" transform="translate(470.5 412.5)">500</text></g><path stroke="#292b2b" d="M100.5 397.5h370" class="mark-rule role-axis-domain"/><text fill="#292b2b" class="mark-text role-axis-title" font-family="Matter XH, DM Sans, sans-serif" font-size="11" text-anchor="middle" transform="translate(285.5 427.5)">Export capacity (MW)</text></g><g aria-label="Y-axis titled 'Export size of the row' for a discrete scale with 4 values: under 1 MW, 1 to 10 MW, 10 to 50 MW, 50 to 100 MW" aria-roledescription="axis" class="mark-group role-axis" pointer-events="none"><path stroke="#292b2b" d="M100.5 300.5h-5m5 28h-5m5 27h-5m5 28h-5" class="mark-rule role-axis-tick"/><g fill="#292b2b" class="mark-text role-axis-label" font-family="Matter Semi Mono, Roboto Mono, monospace" font-size="10" text-anchor="end"><text transform="translate(93.5 303.8)">under 1 MW</text><text transform="translate(93.5 331.3)">1 to 10 MW</text><text transform="translate(93.5 358.8)">10 to 50 MW</text><text transform="translate(93.5 386.3)">50 to 100 MW</text></g><path stroke="#292b2b" d="M100.5 287.5v110" class="mark-rule role-axis-domain"/><text fill="#292b2b" class="mark-text role-axis-title" font-family="Matter XH, DM Sans, sans-serif" font-size="11" text-anchor="middle" transform="rotate(-90 179 163.5)">Export size of the row</text></g><path fill="#ff4901" d="M100 343.4h362.6V368H100Zm0-27.5h62v24.7h-62Zm0 55h70.2v24.7H100Zm0-82.5h22.8V313H100Z" aria-hidden="true" class="mark-rect role-mark concat_1_marks"/><g class="mark-group role-title"><text fill="#292b2b" aria-label="Title text 'Export capacity of those rows'" aria-roledescription="title" class="mark-text role-title-text" font-family="Matter XH, DM Sans, sans-serif" font-size="12" pointer-events="none" transform="translate(6 280)">Export capacity of those rows</text></g></g><g fill="#292b2b" class="mark-group role-title" font-family="Matter XH, DM Sans, sans-serif" pointer-events="none"><text aria-label="Title text 'Figure 3: 141 of NGED's 176 connected batteries are under 1 MW, and the 35 larger ones hold 96% of the megawatts'" aria-roledescription="title" class="mark-text role-title-text" font-size="18" transform="translate(6 19)"><tspan>Figure 3: 141 of NGED&apos;s 176 connected batteries are under 1 MW, and the</tspan><tspan x="0" dy="20">35 larger ones hold 96% of the megawatts</tspan></text><text aria-label="Subtitle text 'Connected rows listing storage in NGED's Embedded Capacity Register, August 2026 release, four licence areas. Only 8 embedded storage Balancing Mechanism Units sit in NGED's four grid supply point groups, 4.5% of the rows.'" aria-roledescription="subtitle" class="mark-text role-title-subtitle" font-size="11" transform="translate(6 58)"><tspan>Connected rows listing storage in NGED&apos;s Embedded Capacity Register, August 2026 release, four licence areas.</tspan><tspan x="0" dy="13">Only 8 embedded storage Balancing Mechanism Units sit in NGED&apos;s four grid supply point groups, 4.5% of the rows.</tspan></text></g></g></svg>
