<svg xmlns="http://www.w3.org/2000/svg" width="609" height="850" class="marks" viewBox="0 0 609 850"><path fill="#fffbf5" d="M0 0h609v850H0z"/><g fill="none" stroke-miterlimit="10" aria-roledescription="group mark container" class="mark-group role-frame root"><path d="M46 326h450z" aria-hidden="true" class="background"/><g aria-roledescription="group mark container" class="mark-group role-scope concat_0_group"><path fill="#fffbf5" d="M46 326h450v150H46Z" aria-hidden="true" class="background"/><g aria-hidden="true" class="mark-group role-axis"><path stroke="#eaeaea" d="M96.5 326.5v150m150-150v150m150-150v150" class="mark-rule role-axis-grid" pointer-events="none"/></g><g aria-hidden="true" class="mark-group role-axis"><path stroke="#eaeaea" d="M46.5 476.5h450m-450-27h450m-450-28h450m-450-27h450m-450-27h450m-450-27h450" class="mark-rule role-axis-grid" pointer-events="none"/></g><g aria-label="X-axis titled 'Hour of day (UTC; the label of the hour that ends at that time)' for a linear scale with values from 4 to 22" aria-roledescription="axis" class="mark-group role-axis" pointer-events="none"><path stroke="#292b2b" d="M96.5 476.5v5m150-5v5m150-5v5" class="mark-rule role-axis-tick"/><g fill="#292b2b" class="mark-text role-axis-label" font-family="Matter Semi Mono, Roboto Mono, monospace" font-size="10" text-anchor="middle"><text transform="translate(96.5 491.5)">6</text><text transform="translate(246.5 491.5)">12</text><text transform="translate(396.5 491.5)">18</text></g><path stroke="#292b2b" d="M46.5 476.5h450" class="mark-rule role-axis-domain"/><text fill="#292b2b" class="mark-text role-axis-title" font-family="Matter XH, DM Sans, sans-serif" font-size="11" text-anchor="middle" transform="translate(271.5 506.5)">Hour of day (UTC; the label of the hour that ends at that time)</text></g><g aria-label="Y-axis titled 'Change in mean absolute error (% of the second set's)' for a linear scale with values from −20 to 35" aria-roledescription="axis" class="mark-group role-axis" pointer-events="none"><path stroke="#292b2b" d="M46.5 476.5h-5m5-27h-5m5-28h-5m5-27h-5m5-27h-5m5-27h-5" class="mark-rule role-axis-tick"/><g fill="#292b2b" class="mark-text role-axis-label" font-family="Matter Semi Mono, Roboto Mono, monospace" font-size="10" text-anchor="end"><text transform="translate(39.5 479.5)">−20</text><text transform="translate(39.5 452.2)">−10</text><text transform="translate(39.5 425)">0</text><text transform="translate(39.5 397.7)">10</text><text transform="translate(39.5 370.4)">20</text><text transform="translate(39.5 343.1)">30</text></g><path stroke="#292b2b" d="M46.5 476.5v-150" class="mark-rule role-axis-domain"/><text fill="#292b2b" class="mark-text role-axis-title" font-family="Matter XH, DM Sans, sans-serif" font-size="11" text-anchor="middle" transform="rotate(-90 208.5 193)">Change in mean absolute error (% of the second set&apos;s)</text></g><g aria-roledescription="group mark container" class="mark-group role-scope concat_0_layer_0_pathgroup"><path d="M46 326h450v150H46Z" aria-hidden="true" class="background"/><path fill="#ff4901" d="m71 452 25-28.6 25 2.2 25 3.9 25 5 25 1.5 25 4.6 25 4.4 25 1 25 2.3 25 2.3 25 2.2 25-5.3 25-9.6 25-12.2 25 10.9v-35.2l-25 10.7-25 12.7-25 12-25 6.6-25-2.2-25-1.6-25-2.9-25-1.3-25-3.3-25-2.4-25-1.8-25-5.2-25-5-25-6.6-25 3.3Z" aria-hidden="true" class="mark-area role-mark concat_0_layer_0_marks" opacity=".2"/><path d="M46 326h450v150H46Z" aria-hidden="true" class="background"/><path fill="#306bff" d="m71 398.8 25 18 25 13.4 25-1.7 25 .2 25 6.8 25 .5 25 .9 25 2.7 25-2 25-.6 25-1.6 25 3.5 25-6.6 25-5.1 25-5.6v-29.3l-25 25-25 6.2-25 7.2-25-3.3-25 2.2-25 1.3-25 1.7-25-2.5-25-2-25 .2-25-6.2-25 .7-25-1.6-25-16.4L71 366Z" aria-hidden="true" class="mark-area role-mark concat_0_layer_0_marks" opacity=".2"/><path d="M46 326h450v150H46Z" aria-hidden="true" class="background"/><path fill="#17e58f" d="m71 375.8 25 32.6 25 29.1 25 9 25 1.6 25 8.2 25 2.3 25 6 25 4.6 25-2.7 25 3 25 1.2 25-3.6 25-21.2 25-37.5 25-12.9V347l-25 41-25 42-25 22-25 5-25-1.7-25-.8-25 2-25-3.5-25-6.7h-25l-25-7.1-25-4-25-13-25-33.3-25-51Z" aria-hidden="true" class="mark-area role-mark concat_0_layer_0_marks" opacity=".2"/></g><g aria-roledescription="group mark container" class="mark-group role-scope concat_0_layer_1_layer_0_pathgroup"><path d="M46 326h450v150H46Z" aria-hidden="true" class="background"/><path stroke="#ff4901" stroke-width="1.5" d="m71 432.5 25-14.8 25 4 25 4.2 25 5 25 2 25 3.3 25 3.8 25 1.3 25 2.7 25 1.8 25 2.3 25-6 25-10.8 25-12.4 25-.7" aria-hidden="true" class="mark-line role-mark concat_0_layer_1_layer_0_marks"/><path d="M46 326h450v150H46Z" aria-hidden="true" class="background"/><path stroke="#306bff" stroke-width="1.5" d="m71 383.5 25 27 25 15.1h25l25-.2 25 6.4 25 .1 25 1.6 25 2.6 25-2 25-1 25-1.8 25 3.3 25-6.7 25-5.6 25-15.7" aria-hidden="true" class="mark-line role-mark concat_0_layer_1_layer_0_marks"/><path d="M46 326h450v150H46Z" aria-hidden="true" class="background"/><path stroke="#17e58f" stroke-width="1.5" d="m71 357.4 25 41.3 25 31 25 11.1 25 2.7 25 7.6 25 1.3 25 6.3 25 4 25-2.4 25 2.1 25 1.1 25-3.8 25-21.7 25-40.3 25-27" aria-hidden="true" class="mark-line role-mark concat_0_layer_1_layer_0_marks"/></g><g aria-roledescription="symbol mark container" class="mark-symbol role-mark concat_0_layer_1_layer_1_marks"><path fill="#ff4901" d="M248.7 440a2.7 2.7 0 1 1-5.4 0 2.7 2.7 0 1 1 5.4 0" aria-label="Hour of day (UTC; the label of the hour that ends at that time): 12; relative: −6.81042353949; series: g2-g0" aria-roledescription="point"/><path fill="#306bff" d="M248.7 433.5a2.7 2.7 0 1 1-5.4 0 2.7 2.7 0 1 1 5.4 0" aria-label="Hour of day (UTC; the label of the hour that ends at that time): 12; relative: −4.40310013217; series: g4-g3" aria-roledescription="point"/><path fill="#17e58f" d="M248.7 458.7a2.7 2.7 0 1 1-5.4 0 2.7 2.7 0 1 1 5.4 0" aria-label="Hour of day (UTC; the label of the hour that ends at that time): 12; relative: −13.6454888748; series: g9-g0" aria-roledescription="point"/><path fill="#ff4901" d="M273.7 441.3a2.7 2.7 0 1 1-5.4 0 2.7 2.7 0 1 1 5.4 0" aria-label="Hour of day (UTC; the label of the hour that ends at that time): 13; relative: −7.29319861893; series: g2-g0" aria-roledescription="point"/><path fill="#306bff" d="M273.7 436.1a2.7 2.7 0 1 1-5.4 0 2.7 2.7 0 1 1 5.4 0" aria-label="Hour of day (UTC; the label of the hour that ends at that time): 13; relative: −5.38548456363; series: g4-g3" aria-roledescription="point"/><path fill="#17e58f" d="M273.7 462.7a2.7 2.7 0 1 1-5.4 0 2.7 2.7 0 1 1 5.4 0" aria-label="Hour of day (UTC; the label of the hour that ends at that time): 13; relative: −15.1272428515; series: g9-g0" aria-roledescription="point"/><path fill="#ff4901" d="M173.7 431a2.7 2.7 0 1 1-5.4 0 2.7 2.7 0 1 1 5.4 0" aria-label="Hour of day (UTC; the label of the hour that ends at that time): 9; relative: −3.49190028019; series: g2-g0" aria-roledescription="point"/><path fill="#306bff" d="M173.7 425.4a2.7 2.7 0 1 1-5.4 0 2.7 2.7 0 1 1 5.4 0" aria-label="Hour of day (UTC; the label of the hour that ends at that time): 9; relative: −1.43789022096; series: g4-g3" aria-roledescription="point"/><path fill="#17e58f" d="M173.7 443.5a2.7 2.7 0 1 1-5.4 0 2.7 2.7 0 1 1 5.4 0" aria-label="Hour of day (UTC; the label of the hour that ends at that time): 9; relative: −8.09979654399; series: g9-g0" aria-roledescription="point"/><path fill="#ff4901" d="M298.7 444a2.7 2.7 0 1 1-5.4 0 2.7 2.7 0 1 1 5.4 0" aria-label="Hour of day (UTC; the label of the hour that ends at that time): 14; relative: −8.25891342469; series: g2-g0" aria-roledescription="point"/><path fill="#306bff" d="M298.7 434.1a2.7 2.7 0 1 1-5.4 0 2.7 2.7 0 1 1 5.4 0" aria-label="Hour of day (UTC; the label of the hour that ends at that time): 14; relative: −4.63969650192; series: g4-g3" aria-roledescription="point"/><path fill="#17e58f" d="M298.7 460.3a2.7 2.7 0 1 1-5.4 0 2.7 2.7 0 1 1 5.4 0" aria-label="Hour of day (UTC; the label of the hour that ends at that time): 14; relative: −14.2346578644; series: g9-g0" aria-roledescription="point"/><path fill="#ff4901" d="M348.7 448.1a2.7 2.7 0 1 1-5.4 0 2.7 2.7 0 1 1 5.4 0" aria-label="Hour of day (UTC; the label of the hour that ends at that time): 16; relative: −9.77817626577; series: g2-g0" aria-roledescription="point"/><path fill="#306bff" d="M348.7 431.3a2.7 2.7 0 1 1-5.4 0 2.7 2.7 0 1 1 5.4 0" aria-label="Hour of day (UTC; the label of the hour that ends at that time): 16; relative: −3.60590124129; series: g4-g3" aria-roledescription="point"/><path fill="#17e58f" d="M348.7 463.5a2.7 2.7 0 1 1-5.4 0 2.7 2.7 0 1 1 5.4 0" aria-label="Hour of day (UTC; the label of the hour that ends at that time): 16; relative: −15.4239556112; series: g9-g0" aria-roledescription="point"/><path fill="#ff4901" d="M223.7 436.2a2.7 2.7 0 1 1-5.4 0 2.7 2.7 0 1 1 5.4 0" aria-label="Hour of day (UTC; the label of the hour that ends at that time): 11; relative: −5.41531754382; series: g2-g0" aria-roledescription="point"/><path fill="#306bff" d="M223.7 432a2.7 2.7 0 1 1-5.4 0 2.7 2.7 0 1 1 5.4 0" aria-label="Hour of day (UTC; the label of the hour that ends at that time): 11; relative: −3.83590956649; series: g4-g3" aria-roledescription="point"/><path fill="#17e58f" d="M223.7 452.4a2.7 2.7 0 1 1-5.4 0 2.7 2.7 0 1 1 5.4 0" aria-label="Hour of day (UTC; the label of the hour that ends at that time): 11; relative: −11.3465686584; series: g9-g0" aria-roledescription="point"/><path fill="#ff4901" d="M198.7 432.8a2.7 2.7 0 1 1-5.4 0 2.7 2.7 0 1 1 5.4 0" aria-label="Hour of day (UTC; the label of the hour that ends at that time): 10; relative: −4.17052684231; series: g2-g0" aria-roledescription="point"/><path fill="#306bff" d="M198.7 431.8a2.7 2.7 0 1 1-5.4 0 2.7 2.7 0 1 1 5.4 0" aria-label="Hour of day (UTC; the label of the hour that ends at that time): 10; relative: −3.79518755274; series: g4-g3" aria-roledescription="point"/><path fill="#17e58f" d="M198.7 451a2.7 2.7 0 1 1-5.4 0 2.7 2.7 0 1 1 5.4 0" aria-label="Hour of day (UTC; the label of the hour that ends at that time): 10; relative: −10.8586966764; series: g9-g0" aria-roledescription="point"/><path fill="#ff4901" d="M323.7 445.8a2.7 2.7 0 1 1-5.4 0 2.7 2.7 0 1 1 5.4 0" aria-label="Hour of day (UTC; the label of the hour that ends at that time): 15; relative: −8.9352338509; series: g2-g0" aria-roledescription="point"/><path fill="#306bff" d="M323.7 433a2.7 2.7 0 1 1-5.4 0 2.7 2.7 0 1 1 5.4 0" aria-label="Hour of day (UTC; the label of the hour that ends at that time): 15; relative: −4.2563804572; series: g4-g3" aria-roledescription="point"/><path fill="#17e58f" d="M323.7 462.4a2.7 2.7 0 1 1-5.4 0 2.7 2.7 0 1 1 5.4 0" aria-label="Hour of day (UTC; the label of the hour that ends at that time): 15; relative: −15.0302821519; series: g9-g0" aria-roledescription="point"/><path fill="#ff4901" d="M148.7 426a2.7 2.7 0 1 1-5.4 0 2.7 2.7 0 1 1 5.4 0" aria-label="Hour of day (UTC; the label of the hour that ends at that time): 8; relative: −1.63672173834; series: g2-g0" aria-roledescription="point"/><path fill="#306bff" d="M148.7 425.7a2.7 2.7 0 1 1-5.4 0 2.7 2.7 0 1 1 5.4 0" aria-label="Hour of day (UTC; the label of the hour that ends at that time): 8; relative: −1.54729541102; series: g4-g3" aria-roledescription="point"/><path fill="#17e58f" d="M148.7 440.8a2.7 2.7 0 1 1-5.4 0 2.7 2.7 0 1 1 5.4 0" aria-label="Hour of day (UTC; the label of the hour that ends at that time): 8; relative: −7.10365950351; series: g9-g0" aria-roledescription="point"/><path fill="#ff4901" d="M373.7 442.1a2.7 2.7 0 1 1-5.4 0 2.7 2.7 0 1 1 5.4 0" aria-label="Hour of day (UTC; the label of the hour that ends at that time): 17; relative: −7.57694195127; series: g2-g0" aria-roledescription="point"/><path fill="#306bff" d="M373.7 434.6a2.7 2.7 0 1 1-5.4 0 2.7 2.7 0 1 1 5.4 0" aria-label="Hour of day (UTC; the label of the hour that ends at that time): 17; relative: −4.83419693284; series: g4-g3" aria-roledescription="point"/><path fill="#17e58f" d="M373.7 459.7a2.7 2.7 0 1 1-5.4 0 2.7 2.7 0 1 1 5.4 0" aria-label="Hour of day (UTC; the label of the hour that ends at that time): 17; relative: −14.0057223211; series: g9-g0" aria-roledescription="point"/><path fill="#ff4901" d="M398.7 431.3a2.7 2.7 0 1 1-5.4 0 2.7 2.7 0 1 1 5.4 0" aria-label="Hour of day (UTC; the label of the hour that ends at that time): 18; relative: −3.605879709; series: g2-g0" aria-roledescription="point"/><path fill="#306bff" d="M398.7 427.9a2.7 2.7 0 1 1-5.4 0 2.7 2.7 0 1 1 5.4 0" aria-label="Hour of day (UTC; the label of the hour that ends at that time): 18; relative: −2.36275044133; series: g4-g3" aria-roledescription="point"/><path fill="#17e58f" d="M398.7 438a2.7 2.7 0 1 1-5.4 0 2.7 2.7 0 1 1 5.4 0" aria-label="Hour of day (UTC; the label of the hour that ends at that time): 18; relative: −6.05444115098; series: g9-g0" aria-roledescription="point"/><path fill="#ff4901" d="M123.7 421.6a2.7 2.7 0 1 1-5.4 0 2.7 2.7 0 1 1 5.4 0" aria-label="Hour of day (UTC; the label of the hour that ends at that time): 7; relative: −0.0570717896109; series: g2-g0" aria-roledescription="point"/><path fill="#306bff" d="M123.7 425.6a2.7 2.7 0 1 1-5.4 0 2.7 2.7 0 1 1 5.4 0" aria-label="Hour of day (UTC; the label of the hour that ends at that time): 7; relative: −1.52271685963; series: g4-g3" aria-roledescription="point"/><path fill="#17e58f" d="M123.7 429.7a2.7 2.7 0 1 1-5.4 0 2.7 2.7 0 1 1 5.4 0" aria-label="Hour of day (UTC; the label of the hour that ends at that time): 7; relative: −3.04078474203; series: g9-g0" aria-roledescription="point"/><path fill="#ff4901" d="M423.7 419a2.7 2.7 0 1 1-5.4 0 2.7 2.7 0 1 1 5.4 0" aria-label="Hour of day (UTC; the label of the hour that ends at that time): 19; relative: 0.929591769924; series: g2-g0" aria-roledescription="point"/><path fill="#306bff" d="M423.7 422.3a2.7 2.7 0 1 1-5.4 0 2.7 2.7 0 1 1 5.4 0" aria-label="Hour of day (UTC; the label of the hour that ends at that time): 19; relative: −0.325292121002; series: g4-g3" aria-roledescription="point"/><path fill="#17e58f" d="M423.7 397.7a2.7 2.7 0 1 1-5.4 0 2.7 2.7 0 1 1 5.4 0" aria-label="Hour of day (UTC; the label of the hour that ends at that time): 19; relative: 8.72670275806; series: g9-g0" aria-roledescription="point"/><path fill="#ff4901" d="M98.7 417.7a2.7 2.7 0 1 1-5.4 0 2.7 2.7 0 1 1 5.4 0" aria-label="Hour of day (UTC; the label of the hour that ends at that time): 6; relative: 1.38959147951; series: g2-g0" aria-roledescription="point"/><path fill="#306bff" d="M98.7 410.5a2.7 2.7 0 1 1-5.4 0 2.7 2.7 0 1 1 5.4 0" aria-label="Hour of day (UTC; the label of the hour that ends at that time): 6; relative: 3.99899156647; series: g4-g3" aria-roledescription="point"/><path fill="#17e58f" d="M98.7 398.7a2.7 2.7 0 1 1-5.4 0 2.7 2.7 0 1 1 5.4 0" aria-label="Hour of day (UTC; the label of the hour that ends at that time): 6; relative: 8.32841574256; series: g9-g0" aria-roledescription="point"/><path fill="#ff4901" d="M73.7 432.5a2.7 2.7 0 1 1-5.4 0 2.7 2.7 0 1 1 5.4 0" aria-label="Hour of day (UTC; the label of the hour that ends at that time): 5; relative: −4.06112990648; series: g2-g0" aria-roledescription="point"/><path fill="#306bff" d="M73.7 383.5a2.7 2.7 0 1 1-5.4 0 2.7 2.7 0 1 1 5.4 0" aria-label="Hour of day (UTC; the label of the hour that ends at that time): 5; relative: 13.9119065168; series: g4-g3" aria-roledescription="point"/><path fill="#17e58f" d="M73.7 357.4a2.7 2.7 0 1 1-5.4 0 2.7 2.7 0 1 1 5.4 0" aria-label="Hour of day (UTC; the label of the hour that ends at that time): 5; relative: 23.4774200786; series: g9-g0" aria-roledescription="point"/><path fill="#ff4901" d="M448.7 418.2a2.7 2.7 0 1 1-5.4 0 2.7 2.7 0 1 1 5.4 0" aria-label="Hour of day (UTC; the label of the hour that ends at that time): 20; relative: 1.18612825311; series: g2-g0" aria-roledescription="point"/><path fill="#306bff" d="M448.7 406.6a2.7 2.7 0 1 1-5.4 0 2.7 2.7 0 1 1 5.4 0" aria-label="Hour of day (UTC; the label of the hour that ends at that time): 20; relative: 5.46172926872; series: g4-g3" aria-roledescription="point"/><path fill="#17e58f" d="M448.7 370.7a2.7 2.7 0 1 1-5.4 0 2.7 2.7 0 1 1 5.4 0" aria-label="Hour of day (UTC; the label of the hour that ends at that time): 20; relative: 18.5917008473; series: g9-g0" aria-roledescription="point"/></g><path stroke="#292b2b" stroke-dasharray="4,3" d="M496 421.5H46" aria-hidden="true" class="mark-rule role-mark concat_0_layer_2_marks"/><path stroke="#292b2b" stroke-dasharray="1,3" d="M183.5 326v150" aria-hidden="true" class="mark-rule role-mark concat_0_layer_3_marks"/><g aria-label="Symbol legend for fill color and stroke color with 3 values: g2-g0, g4-g3, g9-g0" aria-roledescription="legend" class="mark-group role-legend"><path d="M46 295h451v13H46Z" aria-hidden="true" class="background" pointer-events="none"/><g class="mark-group role-legend-entry"><g aria-roledescription="group mark container" class="mark-group role-scope" pointer-events="none"><path d="M46 295.3h142v12.4H46Z" aria-hidden="true" class="background"/><path fill="#ff4901" stroke="#ff4901" stroke-width="1.5" d="M57 301.3a5 5 0 1 1-10 0 5 5 0 1 1 10 0" class="mark-symbol role-legend-symbol"/><text fill="#292b2b" class="mark-text role-legend-label" font-family="Matter Semi Mono, Roboto Mono, monospace" font-size="10" transform="translate(62 304.3)">Cloud layers: G2 - G0</text><path d="M200 295.3h136v12.4H200Z" aria-hidden="true" class="background"/><path fill="#306bff" stroke="#306bff" stroke-width="1.5" d="M211 301.3a5 5 0 1 1-10 0 5 5 0 1 1 10 0" class="mark-symbol role-legend-symbol"/><text fill="#292b2b" class="mark-text role-legend-label" font-family="Matter Semi Mono, Roboto Mono, monospace" font-size="10" transform="translate(216 304.3)">Cloud water: G4 - G3</text><path d="M348 295.3h148v12.4H348Z" aria-hidden="true" class="background"/><path fill="#17e58f" stroke="#17e58f" stroke-width="1.5" d="M359 301.3a5 5 0 1 1-10 0 5 5 0 1 1 10 0" class="mark-symbol role-legend-symbol"/><text fill="#292b2b" class="mark-text role-legend-label" font-family="Matter Semi Mono, Roboto Mono, monospace" font-size="10" transform="translate(364 304.3)">All variables: G9 - G0</text></g></g></g><g class="mark-group role-title"><text fill="#292b2b" aria-label="Title text 'Solar farms' output'" aria-roledescription="title" class="mark-text role-title-text" font-family="Matter XH, DM Sans, sans-serif" font-size="14" pointer-events="none" transform="translate(6 260.9)">Solar farms&apos; output</text></g></g><g aria-roledescription="group mark container" class="mark-group role-scope concat_1_group"><path fill="#fffbf5" d="M46 636h450v150H46Z" aria-hidden="true" class="background"/><g aria-hidden="true" class="mark-group role-axis"><path stroke="#eaeaea" d="M96.5 636.5v150m150-150v150m150-150v150" class="mark-rule role-axis-grid" pointer-events="none"/></g><g aria-hidden="true" class="mark-group role-axis"><path stroke="#eaeaea" d="M46.5 774.5h450m-450-32h450m-450-31h450m-450-31h450m-450-31h450" class="mark-rule role-axis-grid" pointer-events="none"/></g><g aria-label="X-axis titled 'Hour of day (UTC; the label of the hour that ends at that time)' for a linear scale with values from 4 to 22" aria-roledescription="axis" class="mark-group role-axis" pointer-events="none"><path stroke="#292b2b" d="M96.5 786.5v5m150-5v5m150-5v5" class="mark-rule role-axis-tick"/><g fill="#292b2b" class="mark-text role-axis-label" font-family="Matter Semi Mono, Roboto Mono, monospace" font-size="10" text-anchor="middle"><text transform="translate(96.5 801.5)">6</text><text transform="translate(246.5 801.5)">12</text><text transform="translate(396.5 801.5)">18</text></g><path stroke="#292b2b" d="M46.5 786.5h450" class="mark-rule role-axis-domain"/><text fill="#292b2b" class="mark-text role-axis-title" font-family="Matter XH, DM Sans, sans-serif" font-size="11" text-anchor="middle" transform="translate(271.5 816.5)">Hour of day (UTC; the label of the hour that ends at that time)</text></g><g aria-label="Y-axis titled 'Change in mean absolute error (% of the second set's)' for a linear scale with values from −22 to 2" aria-roledescription="axis" class="mark-group role-axis" pointer-events="none"><path stroke="#292b2b" d="M46.5 774.5h-5m5-32h-5m5-31h-5m5-31h-5m5-31h-5" class="mark-rule role-axis-tick"/><g fill="#292b2b" class="mark-text role-axis-label" font-family="Matter Semi Mono, Roboto Mono, monospace" font-size="10" text-anchor="end"><text transform="translate(39.5 777)">−20</text><text transform="translate(39.5 745.8)">−15</text><text transform="translate(39.5 714.5)">−10</text><text transform="translate(39.5 683.3)">−5</text><text transform="translate(39.5 652)">0</text></g><path stroke="#292b2b" d="M46.5 786.5v-150" class="mark-rule role-axis-domain"/><text fill="#292b2b" class="mark-text role-axis-title" font-family="Matter XH, DM Sans, sans-serif" font-size="11" text-anchor="middle" transform="rotate(-90 363.5 348)">Change in mean absolute error (% of the second set&apos;s)</text></g><g aria-roledescription="group mark container" class="mark-group role-scope concat_1_layer_0_pathgroup"><path d="M46 636h450v150H46Z" aria-hidden="true" class="background"/><path fill="#ff4901" d="m71 675.4 25 4.4 25-8.6 25 3 25 7.6 25 8 25 12.4 25 13 25 1.6 25 5.5 25 7.7 25-3.7 25-7.4 25-14 25-23.4 25-.7v-29.5l-25 6.5-25 17.3-25 18.8-25 5.6-25 6.7-25-5.9-25-5.2-25-.9-25-10.3-25-10.7-25-9-25-6.7-25-5.2-25 4.7-25-9.2Z" aria-hidden="true" class="mark-area role-mark concat_1_layer_0_marks" opacity=".2"/><path d="M46 636h450v150H46Z" aria-hidden="true" class="background"/><path fill="#306bff" d="m71 660.7 25 8.6 25-5 25 .7 25 7.7 25 14 25 2.6 25-.7 25 5.5 25-2.8 25 1.7 25-4.1 25 10.7 25-6.6 25-13 25-14.5v-24.2l-25 17.5-25 10.3-25 6.2-25-8.2-25 5.7-25 1.4-25 1.6-25-5.6-25 .8-25 .2-25-13.3-25-7.4-25-1.5-25-1.4-25-11.4Z" aria-hidden="true" class="mark-area role-mark concat_1_layer_0_marks" opacity=".2"/><path d="M46 636h450v150H46Z" aria-hidden="true" class="background"/><path fill="#17e58f" d="m71 685.3 25 27.4 25 3.6 25-.1 25 7 25 16.7 25 9.5 25 22.6 25 13.4 25-9.5 25 3 25-7.4 25 2.7 25-15.4 25-44.6 25-11.5V658l-25 28.4-25 35.5-25 16.6-25-2.5-25 14.6-25-2.9-25 7.5-25-12.6-25-17.5-25-6.2-25-14.7-25-14.6-25 1.8-25-10.7-25-43Z" aria-hidden="true" class="mark-area role-mark concat_1_layer_0_marks" opacity=".2"/></g><g aria-roledescription="group mark container" class="mark-group role-scope concat_1_layer_1_layer_0_pathgroup"><path d="M46 636h450v150H46Z" aria-hidden="true" class="background"/><path stroke="#ff4901" stroke-width="1.5" d="m71 661 25 7.3 25-6.8 25 4.3 25 7 25 8.8 25 11.1 25 11.5 25 1.5 25 5.3 25 7.2 25-5.2 25-6.6 25-16.1 25-20.8 25-4.3" aria-hidden="true" class="mark-line role-mark concat_1_layer_1_layer_0_marks"/><path d="M46 636h450v150H46Z" aria-hidden="true" class="background"/><path stroke="#306bff" stroke-width="1.5" d="m71 648.6 25 10 25-2.5 25 1.5 25 7.5 25 13.8 25 1 25-.5 25 5.6 25-2.3 25-.3 25-4.6 25 9.7 25-6.6 25-11.8 25-14.8" aria-hidden="true" class="mark-line role-mark concat_1_layer_1_layer_0_marks"/><path d="M46 636h450v150H46Z" aria-hidden="true" class="background"/><path stroke="#17e58f" stroke-width="1.5" d="m71 661.8 25 34.7 25 7.3 25-.8 25 10.5 25 15.9 25 7.5 25 20.5 25 12.7 25-7.9 25 2.8 25-11.3 25 2.8 25-16 25-40.7 25-19.2" aria-hidden="true" class="mark-line role-mark concat_1_layer_1_layer_0_marks"/></g><g aria-roledescription="symbol mark container" class="mark-symbol role-mark concat_1_layer_1_layer_1_marks"><path fill="#ff4901" d="M223.7 692.7a2.7 2.7 0 1 1-5.4 0 2.7 2.7 0 1 1 5.4 0" aria-label="Hour of day (UTC; the label of the hour that ends at that time): 11; relative: −7.07510151408; series: g2-g0" aria-roledescription="point"/><path fill="#306bff" d="M223.7 679.9a2.7 2.7 0 1 1-5.4 0 2.7 2.7 0 1 1 5.4 0" aria-label="Hour of day (UTC; the label of the hour that ends at that time): 11; relative: −5.02050661036; series: g4-g3" aria-roledescription="point"/><path fill="#17e58f" d="M223.7 737a2.7 2.7 0 1 1-5.4 0 2.7 2.7 0 1 1 5.4 0" aria-label="Hour of day (UTC; the label of the hour that ends at that time): 11; relative: −14.1518028496; series: g9-g0" aria-roledescription="point"/><path fill="#ff4901" d="M298.7 711a2.7 2.7 0 1 1-5.4 0 2.7 2.7 0 1 1 5.4 0" aria-label="Hour of day (UTC; the label of the hour that ends at that time): 14; relative: −10.0012675053; series: g2-g0" aria-roledescription="point"/><path fill="#306bff" d="M298.7 682.7a2.7 2.7 0 1 1-5.4 0 2.7 2.7 0 1 1 5.4 0" aria-label="Hour of day (UTC; the label of the hour that ends at that time): 14; relative: −5.46839995875; series: g4-g3" aria-roledescription="point"/><path fill="#17e58f" d="M298.7 762.2a2.7 2.7 0 1 1-5.4 0 2.7 2.7 0 1 1 5.4 0" aria-label="Hour of day (UTC; the label of the hour that ends at that time): 14; relative: −18.1919141387; series: g9-g0" aria-roledescription="point"/><path fill="#ff4901" d="M248.7 704.3a2.7 2.7 0 1 1-5.4 0 2.7 2.7 0 1 1 5.4 0" aria-label="Hour of day (UTC; the label of the hour that ends at that time): 12; relative: −8.92007499663; series: g2-g0" aria-roledescription="point"/><path fill="#306bff" d="M248.7 679.4a2.7 2.7 0 1 1-5.4 0 2.7 2.7 0 1 1 5.4 0" aria-label="Hour of day (UTC; the label of the hour that ends at that time): 12; relative: −4.94303631746; series: g4-g3" aria-roledescription="point"/><path fill="#17e58f" d="M248.7 757.4a2.7 2.7 0 1 1-5.4 0 2.7 2.7 0 1 1 5.4 0" aria-label="Hour of day (UTC; the label of the hour that ends at that time): 12; relative: −17.4196233871; series: g9-g0" aria-roledescription="point"/><path fill="#ff4901" d="M273.7 705.7a2.7 2.7 0 1 1-5.4 0 2.7 2.7 0 1 1 5.4 0" aria-label="Hour of day (UTC; the label of the hour that ends at that time): 13; relative: −9.15010109897; series: g2-g0" aria-roledescription="point"/><path fill="#306bff" d="M273.7 685a2.7 2.7 0 1 1-5.4 0 2.7 2.7 0 1 1 5.4 0" aria-label="Hour of day (UTC; the label of the hour that ends at that time): 13; relative: −5.84765459168; series: g4-g3" aria-roledescription="point"/><path fill="#17e58f" d="M273.7 770a2.7 2.7 0 1 1-5.4 0 2.7 2.7 0 1 1 5.4 0" aria-label="Hour of day (UTC; the label of the hour that ends at that time): 13; relative: −19.4512010418; series: g9-g0" aria-roledescription="point"/><path fill="#ff4901" d="M323.7 718.2a2.7 2.7 0 1 1-5.4 0 2.7 2.7 0 1 1 5.4 0" aria-label="Hour of day (UTC; the label of the hour that ends at that time): 15; relative: −11.147885492; series: g2-g0" aria-roledescription="point"/><path fill="#306bff" d="M323.7 682.4a2.7 2.7 0 1 1-5.4 0 2.7 2.7 0 1 1 5.4 0" aria-label="Hour of day (UTC; the label of the hour that ends at that time): 15; relative: −5.41644531724; series: g4-g3" aria-roledescription="point"/><path fill="#17e58f" d="M323.7 765a2.7 2.7 0 1 1-5.4 0 2.7 2.7 0 1 1 5.4 0" aria-label="Hour of day (UTC; the label of the hour that ends at that time): 15; relative: −18.632477286; series: g9-g0" aria-roledescription="point"/><path fill="#ff4901" d="M348.7 713a2.7 2.7 0 1 1-5.4 0 2.7 2.7 0 1 1 5.4 0" aria-label="Hour of day (UTC; the label of the hour that ends at that time): 16; relative: −10.3280256999; series: g2-g0" aria-roledescription="point"/><path fill="#306bff" d="M348.7 677.8a2.7 2.7 0 1 1-5.4 0 2.7 2.7 0 1 1 5.4 0" aria-label="Hour of day (UTC; the label of the hour that ends at that time): 16; relative: −4.69072288114; series: g4-g3" aria-roledescription="point"/><path fill="#17e58f" d="M348.7 753.7a2.7 2.7 0 1 1-5.4 0 2.7 2.7 0 1 1 5.4 0" aria-label="Hour of day (UTC; the label of the hour that ends at that time): 16; relative: −16.8259066795; series: g9-g0" aria-roledescription="point"/><path fill="#ff4901" d="M173.7 672.8a2.7 2.7 0 1 1-5.4 0 2.7 2.7 0 1 1 5.4 0" aria-label="Hour of day (UTC; the label of the hour that ends at that time): 9; relative: −3.88396244805; series: g2-g0" aria-roledescription="point"/><path fill="#306bff" d="M173.7 665.1a2.7 2.7 0 1 1-5.4 0 2.7 2.7 0 1 1 5.4 0" aria-label="Hour of day (UTC; the label of the hour that ends at that time): 9; relative: −2.66261982559; series: g4-g3" aria-roledescription="point"/><path fill="#17e58f" d="M173.7 713.5a2.7 2.7 0 1 1-5.4 0 2.7 2.7 0 1 1 5.4 0" aria-label="Hour of day (UTC; the label of the hour that ends at that time): 9; relative: −10.4016905393; series: g9-g0" aria-roledescription="point"/><path fill="#ff4901" d="M198.7 681.6a2.7 2.7 0 1 1-5.4 0 2.7 2.7 0 1 1 5.4 0" aria-label="Hour of day (UTC; the label of the hour that ends at that time): 10; relative: −5.3032064749; series: g2-g0" aria-roledescription="point"/><path fill="#306bff" d="M198.7 678.9a2.7 2.7 0 1 1-5.4 0 2.7 2.7 0 1 1 5.4 0" aria-label="Hour of day (UTC; the label of the hour that ends at that time): 10; relative: −4.85950847993; series: g4-g3" aria-roledescription="point"/><path fill="#17e58f" d="M198.7 729.4a2.7 2.7 0 1 1-5.4 0 2.7 2.7 0 1 1 5.4 0" aria-label="Hour of day (UTC; the label of the hour that ends at that time): 10; relative: −12.9445899861; series: g9-g0" aria-roledescription="point"/><path fill="#ff4901" d="M98.7 668.3a2.7 2.7 0 1 1-5.4 0 2.7 2.7 0 1 1 5.4 0" aria-label="Hour of day (UTC; the label of the hour that ends at that time): 6; relative: −3.162406615; series: g2-g0" aria-roledescription="point"/><path fill="#306bff" d="M98.7 658.6a2.7 2.7 0 1 1-5.4 0 2.7 2.7 0 1 1 5.4 0" aria-label="Hour of day (UTC; the label of the hour that ends at that time): 6; relative: −1.6133088106; series: g4-g3" aria-roledescription="point"/><path fill="#17e58f" d="M98.7 696.5a2.7 2.7 0 1 1-5.4 0 2.7 2.7 0 1 1 5.4 0" aria-label="Hour of day (UTC; the label of the hour that ends at that time): 6; relative: −7.68557325972; series: g9-g0" aria-roledescription="point"/><path fill="#ff4901" d="M123.7 661.5a2.7 2.7 0 1 1-5.4 0 2.7 2.7 0 1 1 5.4 0" aria-label="Hour of day (UTC; the label of the hour that ends at that time): 7; relative: −2.08286834766; series: g2-g0" aria-roledescription="point"/><path fill="#306bff" d="M123.7 656.1a2.7 2.7 0 1 1-5.4 0 2.7 2.7 0 1 1 5.4 0" aria-label="Hour of day (UTC; the label of the hour that ends at that time): 7; relative: −1.21556408326; series: g4-g3" aria-roledescription="point"/><path fill="#17e58f" d="M123.7 703.8a2.7 2.7 0 1 1-5.4 0 2.7 2.7 0 1 1 5.4 0" aria-label="Hour of day (UTC; the label of the hour that ends at that time): 7; relative: −8.84453803382; series: g9-g0" aria-roledescription="point"/><path fill="#ff4901" d="M148.7 665.8a2.7 2.7 0 1 1-5.4 0 2.7 2.7 0 1 1 5.4 0" aria-label="Hour of day (UTC; the label of the hour that ends at that time): 8; relative: −2.76689964858; series: g2-g0" aria-roledescription="point"/><path fill="#306bff" d="M148.7 657.6a2.7 2.7 0 1 1-5.4 0 2.7 2.7 0 1 1 5.4 0" aria-label="Hour of day (UTC; the label of the hour that ends at that time): 8; relative: −1.463705891; series: g4-g3" aria-roledescription="point"/><path fill="#17e58f" d="M148.7 703a2.7 2.7 0 1 1-5.4 0 2.7 2.7 0 1 1 5.4 0" aria-label="Hour of day (UTC; the label of the hour that ends at that time): 8; relative: −8.71456534183; series: g9-g0" aria-roledescription="point"/><path fill="#ff4901" d="M373.7 706.4a2.7 2.7 0 1 1-5.4 0 2.7 2.7 0 1 1 5.4 0" aria-label="Hour of day (UTC; the label of the hour that ends at that time): 17; relative: −9.2656649325; series: g2-g0" aria-roledescription="point"/><path fill="#306bff" d="M373.7 687.5a2.7 2.7 0 1 1-5.4 0 2.7 2.7 0 1 1 5.4 0" aria-label="Hour of day (UTC; the label of the hour that ends at that time): 17; relative: −6.24571263542; series: g4-g3" aria-roledescription="point"/><path fill="#17e58f" d="M373.7 756.5a2.7 2.7 0 1 1-5.4 0 2.7 2.7 0 1 1 5.4 0" aria-label="Hour of day (UTC; the label of the hour that ends at that time): 17; relative: −17.2835897957; series: g9-g0" aria-roledescription="point"/><path fill="#ff4901" d="M398.7 690.3a2.7 2.7 0 1 1-5.4 0 2.7 2.7 0 1 1 5.4 0" aria-label="Hour of day (UTC; the label of the hour that ends at that time): 18; relative: −6.68416010321; series: g2-g0" aria-roledescription="point"/><path fill="#306bff" d="M398.7 680.9a2.7 2.7 0 1 1-5.4 0 2.7 2.7 0 1 1 5.4 0" aria-label="Hour of day (UTC; the label of the hour that ends at that time): 18; relative: −5.17750425549; series: g4-g3" aria-roledescription="point"/><path fill="#17e58f" d="M398.7 740.6a2.7 2.7 0 1 1-5.4 0 2.7 2.7 0 1 1 5.4 0" aria-label="Hour of day (UTC; the label of the hour that ends at that time): 18; relative: −14.7323054072; series: g9-g0" aria-roledescription="point"/><path fill="#ff4901" d="M423.7 669.5a2.7 2.7 0 1 1-5.4 0 2.7 2.7 0 1 1 5.4 0" aria-label="Hour of day (UTC; the label of the hour that ends at that time): 19; relative: −3.35421886401; series: g2-g0" aria-roledescription="point"/><path fill="#306bff" d="M423.7 669a2.7 2.7 0 1 1-5.4 0 2.7 2.7 0 1 1 5.4 0" aria-label="Hour of day (UTC; the label of the hour that ends at that time): 19; relative: −3.29169153958; series: g4-g3" aria-roledescription="point"/><path fill="#17e58f" d="M423.7 699.8a2.7 2.7 0 1 1-5.4 0 2.7 2.7 0 1 1 5.4 0" aria-label="Hour of day (UTC; the label of the hour that ends at that time): 19; relative: −8.21110583705; series: g9-g0" aria-roledescription="point"/><path fill="#ff4901" d="M448.7 665.2a2.7 2.7 0 1 1-5.4 0 2.7 2.7 0 1 1 5.4 0" aria-label="Hour of day (UTC; the label of the hour that ends at that time): 20; relative: −2.67960671031; series: g2-g0" aria-roledescription="point"/><path fill="#306bff" d="M448.7 654.3a2.7 2.7 0 1 1-5.4 0 2.7 2.7 0 1 1 5.4 0" aria-label="Hour of day (UTC; the label of the hour that ends at that time): 20; relative: −0.925520549604; series: g4-g3" aria-roledescription="point"/><path fill="#17e58f" d="M448.7 680.6a2.7 2.7 0 1 1-5.4 0 2.7 2.7 0 1 1 5.4 0" aria-label="Hour of day (UTC; the label of the hour that ends at that time): 20; relative: −5.14211513928; series: g9-g0" aria-roledescription="point"/><path fill="#ff4901" d="M73.7 661a2.7 2.7 0 1 1-5.4 0 2.7 2.7 0 1 1 5.4 0" aria-label="Hour of day (UTC; the label of the hour that ends at that time): 5; relative: −2.00218426681; series: g2-g0" aria-roledescription="point"/><path fill="#306bff" d="M73.7 648.6a2.7 2.7 0 1 1-5.4 0 2.7 2.7 0 1 1 5.4 0" aria-label="Hour of day (UTC; the label of the hour that ends at that time): 5; relative: −0.013970026405; series: g4-g3" aria-roledescription="point"/><path fill="#17e58f" d="M73.7 661.8a2.7 2.7 0 1 1-5.4 0 2.7 2.7 0 1 1 5.4 0" aria-label="Hour of day (UTC; the label of the hour that ends at that time): 5; relative: −2.13559368076; series: g9-g0" aria-roledescription="point"/></g><path stroke="#292b2b" stroke-dasharray="4,3" d="M496 648.5H46" aria-hidden="true" class="mark-rule role-mark concat_1_layer_2_marks"/><path stroke="#292b2b" stroke-dasharray="1,3" d="M183.5 636v150" aria-hidden="true" class="mark-rule role-mark concat_1_layer_3_marks"/><g aria-label="Symbol legend for fill color and stroke color with 3 values: g2-g0, g4-g3, g9-g0" aria-roledescription="legend" class="mark-group role-legend"><path d="M46 605h451v13H46Z" aria-hidden="true" class="background" pointer-events="none"/><g class="mark-group role-legend-entry"><g aria-roledescription="group mark container" class="mark-group role-scope" pointer-events="none"><path d="M46 605.3h142v12.5H46Z" aria-hidden="true" class="background"/><path fill="#ff4901" stroke="#ff4901" stroke-width="1.5" d="M57 611.3a5 5 0 1 1-10 0 5 5 0 1 1 10 0" class="mark-symbol role-legend-symbol"/><text fill="#292b2b" class="mark-text role-legend-label" font-family="Matter Semi Mono, Roboto Mono, monospace" font-size="10" transform="translate(62 614.3)">Cloud layers: G2 - G0</text><path d="M200 605.3h136v12.5H200Z" aria-hidden="true" class="background"/><path fill="#306bff" stroke="#306bff" stroke-width="1.5" d="M211 611.3a5 5 0 1 1-10 0 5 5 0 1 1 10 0" class="mark-symbol role-legend-symbol"/><text fill="#292b2b" class="mark-text role-legend-label" font-family="Matter Semi Mono, Roboto Mono, monospace" font-size="10" transform="translate(216 614.3)">Cloud water: G4 - G3</text><path d="M348 605.3h148v12.5H348Z" aria-hidden="true" class="background"/><path fill="#17e58f" stroke="#17e58f" stroke-width="1.5" d="M359 611.3a5 5 0 1 1-10 0 5 5 0 1 1 10 0" class="mark-symbol role-legend-symbol"/><text fill="#292b2b" class="mark-text role-legend-label" font-family="Matter Semi Mono, Roboto Mono, monospace" font-size="10" transform="translate(364 614.3)">All variables: G9 - G0</text></g></g></g><g class="mark-group role-title"><text fill="#292b2b" aria-label="Title text 'CAMS clearness index'" aria-roledescription="title" class="mark-text role-title-text" font-family="Matter XH, DM Sans, sans-serif" font-size="14" pointer-events="none" transform="translate(6 570.9)">CAMS clearness index</text></g></g><g fill="#292b2b" class="mark-group role-title" font-family="Matter XH, DM Sans, sans-serif" pointer-events="none"><text aria-label="Title text 'Figure 11: The gain from the extra variables by hour of day'" aria-roledescription="title" class="mark-text role-title-text" font-size="18" transform="translate(6 19.9)">Figure 11: The gain from the extra variables by hour of day</text><text aria-label="Subtitle text 'Six NGED solar farms, daylight hours, September 2019 to June 2026. ERA5: ECMWF's reanalysis of past weather. CAMS: satellite irradiance service. Line: the mean absolute error with the first variable set minus the error with the second, as a percentage of the second's error. Band: 95% interval from resampling whole months. Below the dashed line is a gain. Dotted line: between 09 and 10 UTC, where ERA5's cloud fields switch to the next assimilation window (the span of observations that fixes them). A variable set is the list of inputs the XGBoost model is given. G0: sun position, ERA5 solar radiation (ssrd), and air temperature (t2m). Each group adds to the one before. G1: total cloud cover. G2: low, mid, and high cloud cover. G3: clear-sky radiation. G4: cloud water and cloud base height. G5: direct beam. G6: wind and thermal radiation. G7: humidity and haze. G8: snow and albedo. G9 (the full set): all other ERA5 variables. G10: G9 plus CAMS aerosol. Clearness index: irradiance divided by the irradiance at the top of the atmosphere. An hour with too few months for an interval is not drawn. Exploratory: not named in the study plan before any result existed, and not corrected for multiple comparisons.'" aria-roledescription="subtitle" class="mark-text role-title-subtitle" font-size="11" transform="translate(6 38.9)"><tspan>Six NGED solar farms, daylight hours, September 2019 to June 2026. ERA5: ECMWF&apos;s reanalysis of past weather. CAMS:</tspan><tspan x="0" dy="13">satellite irradiance service.</tspan><tspan x="0" dy="13">Line: the mean absolute error with the first variable set minus the error with</tspan><tspan x="0" dy="13">the second, as a percentage of the second&apos;s error. Band: 95% interval from</tspan><tspan x="0" dy="13">resampling whole months. Below the dashed line is a gain.</tspan><tspan x="0" dy="13">Dotted line: between 09 and 10 UTC, where ERA5&apos;s cloud fields switch to the next</tspan><tspan x="0" dy="13">assimilation window (the span of observations that fixes them).</tspan><tspan x="0" dy="13">A variable set is the list of inputs the XGBoost model is given. G0: sun position, ERA5 solar</tspan><tspan x="0" dy="13">radiation (ssrd), and air temperature (t2m). Each group adds to the one before.</tspan><tspan x="0" dy="13">G1: total cloud cover. G2: low, mid, and high cloud cover. G3: clear-sky radiation.</tspan><tspan x="0" dy="13">G4: cloud water and cloud base height. G5: direct beam. G6: wind and thermal radiation.</tspan><tspan x="0" dy="13">G7: humidity and haze. G8: snow and albedo. G9 (the full set): all other ERA5 variables.</tspan><tspan x="0" dy="13">G10: G9 plus CAMS aerosol.</tspan><tspan x="0" dy="13">Clearness index: irradiance divided by the irradiance at the top of the atmosphere.</tspan><tspan x="0" dy="13">An hour with too few months for an interval is not drawn.</tspan><tspan x="0" dy="13">Exploratory: not named in the study plan before any result existed, and not corrected for multiple comparisons.</tspan></text></g></g></svg>
