<svg xmlns="http://www.w3.org/2000/svg" width="684" height="1370" class="marks" viewBox="0 0 684 1370"><path fill="#fffbf5" d="M0 0h684v1370H0z"/><g fill="none" stroke-miterlimit="10" aria-roledescription="group mark container" class="mark-group role-frame root"><g aria-roledescription="group mark container" class="mark-group role-scope concat_0_group"><path fill="#fffbf5" d="M59 243h620v52H59Z" aria-hidden="true" class="background"/><g stroke-dasharray="1,0" stroke-width="2.5" aria-hidden="true" class="mark-rule role-mark concat_0_layer_0_marks"><path stroke="#10c5f7" d="M59 251h18"/><path stroke="#ff4901" d="M59 269h18"/><path stroke="#306bff" d="M59 287h18"/></g><g fill="#292b2b" aria-roledescription="text mark container" class="mark-text role-mark concat_0_layer_1_marks" font-family="Matter XH, DM Sans, sans-serif" font-size="11"><text aria-label="x: 0; y: 8; label: Before July (4 months, no May rows; may overlap WN3's training data)" aria-roledescription="text mark" transform="translate(81 254)">Before July (4 months, no May rows; may overlap WN3&apos;s training data)</text><text aria-label="x: 0; y: 26; label: July to September (3 months; after every training end)" aria-roledescription="text mark" transform="translate(81 272)">July to September (3 months; after every training end)</text><text aria-label="x: 0; y: 44; label: All rows, February to September (7 months, no May rows; mixes both)" aria-roledescription="text mark" transform="translate(81 290)">All rows, February to September (7 months, no May rows; mixes both)</text></g></g><g aria-roledescription="group mark container" class="mark-group role-scope concat_1_group"><path fill="#fffbf5" d="M59 319h580v300H59Z" aria-hidden="true" class="background"/><g aria-hidden="true" class="mark-group role-axis"><path stroke="#eaeaea" d="M59.5 587.5h580m-580-37h580m-580-38h580m-580-37h580m-580-38h580m-580-37h580m-580-38h580m-580-37h580" class="mark-rule role-axis-grid" pointer-events="none"/></g><g aria-label="X-axis titled 'Lead day (the four fitted days are spaced evenly)' for a linear scale with values from −1 to 4" aria-roledescription="axis" class="mark-group role-axis" pointer-events="none"><path stroke="#292b2b" d="M132.5 619.5v5m145-5v5m145-5v5m145-5v5" class="mark-rule role-axis-tick"/><g fill="#292b2b" class="mark-text role-axis-label" font-family="Matter Semi Mono, Roboto Mono, monospace" font-size="10" text-anchor="middle"><text transform="translate(132 634.5)">Day 1</text><text transform="translate(277 634.5)">Day 2</text><text transform="translate(422 634.5)">Day 7</text><text transform="translate(567 634.5)">Day 14</text></g><path stroke="#292b2b" d="M59.5 619.5h580" class="mark-rule role-axis-domain"/><text fill="#292b2b" class="mark-text role-axis-title" font-family="Matter XH, DM Sans, sans-serif" font-size="11" text-anchor="middle" transform="translate(349.5 649.5)">Lead day (the four fitted days are spaced evenly)</text></g><g aria-label="Y-axis titled 'WeatherNext 3 minus ENS mean-vector reference (points; negative is better)' for a linear scale with values from −12 to 4" aria-roledescription="axis" class="mark-group role-axis" pointer-events="none"><path stroke="#292b2b" d="M59.5 587.5h-5m5-37h-5m5-38h-5m5-37h-5m5-38h-5m5-37h-5m5-38h-5m5-37h-5" class="mark-rule role-axis-tick"/><g fill="#292b2b" class="mark-text role-axis-label" font-family="Matter Semi Mono, Roboto Mono, monospace" font-size="10" text-anchor="end"><text transform="translate(52.5 590.6)">−10</text><text transform="translate(52.5 553.1)">−8</text><text transform="translate(52.5 515.6)">−6</text><text transform="translate(52.5 478.1)">−4</text><text transform="translate(52.5 440.6)">−2</text><text transform="translate(52.5 403.1)">0</text><text transform="translate(52.5 365.6)">2</text><text transform="translate(52.5 328.1)">4</text></g><path stroke="#292b2b" d="M59.5 619.5v-300" class="mark-rule role-axis-domain"/><text fill="#292b2b" class="mark-text role-axis-title" font-family="Matter XH, DM Sans, sans-serif" font-size="11" text-anchor="middle" transform="rotate(-90 242.5 227)"><tspan>WeatherNext 3 minus ENS mean-vector reference</tspan><tspan x="0" dy="13">(points; negative is better)</tspan></text></g><path stroke="#292b2b" stroke-dasharray="4,3" d="M639 399.6H59" aria-hidden="true" class="mark-rule role-mark concat_1_layer_0_marks"/><g stroke-width="1.5" aria-hidden="true" class="mark-rule role-mark concat_1_layer_1_marks"><path stroke="#10c5f7" d="M122.8 420v-20.6"/><path stroke="#ff4901" d="M131.5 421.8v-22.2"/><path stroke="#306bff" d="M140.2 418v-14.8"/><path stroke="#10c5f7" d="M267.8 425.5v-27.8"/><path stroke="#ff4901" d="M276.5 428.3v-32.7"/><path stroke="#306bff" d="M285.2 422.2v-16.6"/><path stroke="#10c5f7" d="M412.8 486.2V345.4"/><path stroke="#ff4901" d="M421.5 409v-3.7"/><path stroke="#306bff" d="M430.2 453.4v-71"/><path stroke="#10c5f7" d="M557.8 568.8V363.1"/><path stroke="#ff4901" d="M566.5 411v-4.7"/><path stroke="#306bff" d="M575.2 483.6V384"/></g><path stroke="#292b2b" stroke-dasharray="2,2" d="M127.2 418.1v-14.9m8.7 13.3V399m8.7 16.3v-12m127.6 19.2v-28m8.7 31.5v-30.5m8.7 23.7v-15.7m127.6 58.7V351.7m8.7 58V386m8.7 52v-55.3M562.2 593V408.6m8.6-.8v-22m8.8 111.6v-97.5" aria-hidden="true" class="mark-rule role-mark concat_1_layer_2_marks"/><g aria-hidden="true" class="mark-symbol role-mark concat_1_layer_3_marks"><path fill="#10c5f7" d="M126.7 415a3.9 3.9 0 1 1-7.8 0 3.9 3.9 0 1 1 7.8 0"/><path fill="#ff4901" d="M135.4 406.3a3.9 3.9 0 1 1-7.8 0 3.9 3.9 0 1 1 7.8 0"/><path fill="#306bff" d="M144 410.9a3.9 3.9 0 1 1-7.7 0 3.9 3.9 0 1 1 7.8 0"/><path fill="#10c5f7" d="M271.7 418.2a3.9 3.9 0 1 1-7.8 0 3.9 3.9 0 1 1 7.8 0"/><path fill="#ff4901" d="M280.4 405.8a3.9 3.9 0 1 1-7.8 0 3.9 3.9 0 1 1 7.8 0"/><path fill="#306bff" d="M289 414.6a3.9 3.9 0 1 1-7.7 0 3.9 3.9 0 1 1 7.8 0"/><path fill="#10c5f7" d="M416.7 425.3a3.9 3.9 0 1 1-7.8 0 3.9 3.9 0 1 1 7.8 0"/><path fill="#ff4901" d="M425.4 407.4a3.9 3.9 0 1 1-7.8 0 3.9 3.9 0 1 1 7.8 0"/><path fill="#306bff" d="M434 419.3a3.9 3.9 0 1 1-7.7 0 3.9 3.9 0 1 1 7.8 0"/><path fill="#10c5f7" d="M561.7 436.2a3.9 3.9 0 1 1-7.8 0 3.9 3.9 0 1 1 7.8 0"/><path fill="#ff4901" d="M570.4 409a3.9 3.9 0 1 1-7.8 0 3.9 3.9 0 1 1 7.8 0"/><path fill="#306bff" d="M579 421.4a3.9 3.9 0 1 1-7.7 0 3.9 3.9 0 1 1 7.8 0"/></g><path stroke="#292b2b" stroke-width="1.5" d="M124.4 410.3h5.5v5.5h-5.5Zm8.7-7.7h5.5v5.5H133Zm8.7 4.1h5.5v5.4h-5.5Zm127.6 4.6h5.5v5.5h-5.5Zm8.7-9.1h5.5v5.5H278Zm8.7 7.1h5.5v5.5h-5.5Zm127.6 4.8h5.5v5.5h-5.5Zm8.7-17.4h5.5v5.5H423Zm8.7 12.7h5.5v5.5h-5.5ZM559.4 457h5.5v5.4h-5.5Zm8.7-56.3h5.5v5.4H568Zm8.7 27.6h5.5v5.5h-5.5Z" aria-hidden="true" class="mark-symbol role-mark concat_1_layer_4_marks" opacity=".7"/><text fill="#292b2b" aria-hidden="true" class="mark-text role-mark concat_1_layer_5_marks" font-family="Matter XH, DM Sans, sans-serif" font-size="10" transform="translate(65 396.6)">same error as ENS mean-vector reference</text></g><g aria-roledescription="group mark container" class="mark-group role-scope concat_2_group"><path fill="#fffbf5" d="M59 675h580v300H59Z" aria-hidden="true" class="background"/><g aria-hidden="true" class="mark-group role-axis"><path stroke="#eaeaea" d="M59.5 968.5h580m-580-25h580m-580-25h580m-580-24h580m-580-25h580m-580-24h580m-580-25h580m-580-25h580m-580-24h580m-580-25h580m-580-24h580m-580-25h580" class="mark-rule role-axis-grid" pointer-events="none"/></g><g aria-label="X-axis titled 'Lead day (the four fitted days are spaced evenly)' for a linear scale with values from −1 to 4" aria-roledescription="axis" class="mark-group role-axis" pointer-events="none"><path stroke="#292b2b" d="M132.5 975.5v5m145-5v5m145-5v5m145-5v5" class="mark-rule role-axis-tick"/><g fill="#292b2b" class="mark-text role-axis-label" font-family="Matter Semi Mono, Roboto Mono, monospace" font-size="10" text-anchor="middle"><text transform="translate(132 990.5)">Day 1</text><text transform="translate(277 990.5)">Day 2</text><text transform="translate(422 990.5)">Day 7</text><text transform="translate(567 990.5)">Day 14</text></g><path stroke="#292b2b" d="M59.5 975.5h580" class="mark-rule role-axis-domain"/><text fill="#292b2b" class="mark-text role-axis-title" font-family="Matter XH, DM Sans, sans-serif" font-size="11" text-anchor="middle" transform="translate(349.5 1005.5)">Lead day (the four fitted days are spaced evenly)</text></g><g aria-label="Y-axis titled 'WeatherNext 3 mean absolute error (% of capacity; smaller is better)' for a linear scale with values from 3 to 28" aria-roledescription="axis" class="mark-group role-axis" pointer-events="none"><path stroke="#292b2b" d="M59.5 968.5h-5m5-25h-5m5-25h-5m5-24h-5m5-25h-5m5-24h-5m5-25h-5m5-25h-5m5-24h-5m5-25h-5m5-24h-5m5-25h-5" class="mark-rule role-axis-tick"/><g fill="#292b2b" class="mark-text role-axis-label" font-family="Matter Semi Mono, Roboto Mono, monospace" font-size="10" text-anchor="end"><text transform="translate(52.5 971.1)">4</text><text transform="translate(52.5 946.5)">6</text><text transform="translate(52.5 922)">8</text><text transform="translate(52.5 897.4)">10</text><text transform="translate(52.5 872.8)">12</text><text transform="translate(52.5 848.2)">14</text><text transform="translate(52.5 823.6)">16</text><text transform="translate(52.5 799)">18</text><text transform="translate(52.5 774.4)">20</text><text transform="translate(52.5 749.8)">22</text><text transform="translate(52.5 725.2)">24</text><text transform="translate(52.5 700.6)">26</text></g><path stroke="#292b2b" d="M59.5 975.5v-300" class="mark-rule role-axis-domain"/><text fill="#292b2b" class="mark-text role-axis-title" font-family="Matter XH, DM Sans, sans-serif" font-size="11" text-anchor="middle" transform="rotate(-90 423.5 402)"><tspan>WeatherNext 3 mean absolute error</tspan><tspan x="0" dy="13">(% of capacity; smaller is better)</tspan></text></g><g stroke-width="1.5" aria-hidden="true" class="mark-rule role-mark concat_2_layer_0_marks"><path stroke="#10c5f7" d="M122.8 935.3v-26.7"/><path stroke="#ff4901" d="M131.5 949v-31.8"/><path stroke="#306bff" d="M140.2 941.1v-24.8"/><path stroke="#10c5f7" d="M267.8 930.8v-61.4"/><path stroke="#ff4901" d="M276.5 935.5v-45.6"/><path stroke="#306bff" d="M285.2 930.3V889"/><path stroke="#10c5f7" d="M412.8 797.8v-45.3"/><path stroke="#ff4901" d="M421.5 885.6v-45.8"/><path stroke="#306bff" d="M430.2 858.1v-86.4"/><path stroke="#10c5f7" d="M557.8 816.9V700.3"/><path stroke="#ff4901" d="M566.5 895.7v-53.2"/><path stroke="#306bff" d="M575.2 862V731.8"/></g><path stroke="#292b2b" stroke-dasharray="2,2" d="M127.2 936.9v-29.7m8.7 42.6v-30.5m8.7 22.7v-27.3m127.6 18v-64.3m8.7 69.2v-47.2m8.7 41.7V888m127.6-78.3v-65m8.7 140.3v-42m8.7 14v-90.4m127.6 60.9v-118m8.6 185.1v-64m8.8 31.8V739.6" aria-hidden="true" class="mark-rule role-mark concat_2_layer_1_marks"/><g aria-hidden="true" class="mark-symbol role-mark concat_2_layer_2_marks"><path fill="#10c5f7" d="M126.7 920.1a3.9 3.9 0 1 1-7.8 0 3.9 3.9 0 1 1 7.8 0"/><path fill="#ff4901" d="M135.4 938.8a3.9 3.9 0 1 1-7.8 0 3.9 3.9 0 1 1 7.8 0"/><path fill="#306bff" d="M144 929.1a3.9 3.9 0 1 1-7.7 0 3.9 3.9 0 1 1 7.8 0"/><path fill="#10c5f7" d="M271.7 898.6a3.9 3.9 0 1 1-7.8 0 3.9 3.9 0 1 1 7.8 0"/><path fill="#ff4901" d="M280.4 925.5a3.9 3.9 0 1 1-7.8 0 3.9 3.9 0 1 1 7.8 0"/><path fill="#306bff" d="M289 911.3a3.9 3.9 0 1 1-7.7 0 3.9 3.9 0 1 1 7.8 0"/><path fill="#10c5f7" d="M416.7 769.8a3.9 3.9 0 1 1-7.8 0 3.9 3.9 0 1 1 7.8 0"/><path fill="#ff4901" d="M425.4 875.3a3.9 3.9 0 1 1-7.8 0 3.9 3.9 0 1 1 7.8 0"/><path fill="#306bff" d="M434 815.8a3.9 3.9 0 1 1-7.7 0 3.9 3.9 0 1 1 7.8 0"/><path fill="#10c5f7" d="M561.7 733.2a3.9 3.9 0 1 1-7.8 0 3.9 3.9 0 1 1 7.8 0"/><path fill="#ff4901" d="M570.4 883.3a3.9 3.9 0 1 1-7.8 0 3.9 3.9 0 1 1 7.8 0"/><path fill="#306bff" d="M579 796.2a3.9 3.9 0 1 1-7.7 0 3.9 3.9 0 1 1 7.8 0"/></g><path stroke="#292b2b" stroke-width="1.5" d="M124.4 915h5.5v5.6h-5.5Zm8.7 21.5h5.5v5.5H133Zm8.7-11.1h5.5v5.5h-5.5Zm127.6-31.2h5.5v5.5h-5.5Zm8.7 30.4h5.5v5.4H278Zm8.7-16.1h5.5v5.5h-5.5Zm127.6-146.3h5.5v5.5h-5.5Zm8.7 104.8h5.5v5.5H423Zm8.7-58.5h5.5v5.4h-5.5Zm127.6-67.1h5.5v5.4h-5.5Zm8.7 137.1h5.5v5.4H568Zm8.7-80.5h5.5v5.5h-5.5Z" aria-hidden="true" class="mark-symbol role-mark concat_2_layer_3_marks" opacity=".7"/></g><g aria-roledescription="group mark container" class="mark-group role-scope concat_3_group"><path fill="#fffbf5" d="M59 1033h580v300H59Z" aria-hidden="true" class="background"/><g aria-hidden="true" class="mark-group role-axis"><path stroke="#eaeaea" d="M59.5 1331.5h580m-580-25h580m-580-24h580m-580-25h580m-580-24h580m-580-25h580m-580-24h580m-580-25h580m-580-24h580m-580-25h580m-580-24h580m-580-25h580m-580-24h580" class="mark-rule role-axis-grid" pointer-events="none"/></g><g aria-label="X-axis titled 'Lead day (the four fitted days are spaced evenly)' for a linear scale with values from −1 to 4" aria-roledescription="axis" class="mark-group role-axis" pointer-events="none"><path stroke="#292b2b" d="M132.5 1333.5v5m145-5v5m145-5v5m145-5v5" class="mark-rule role-axis-tick"/><g fill="#292b2b" class="mark-text role-axis-label" font-family="Matter Semi Mono, Roboto Mono, monospace" font-size="10" text-anchor="middle"><text transform="translate(132 1348.5)">Day 1</text><text transform="translate(277 1348.5)">Day 2</text><text transform="translate(422 1348.5)">Day 7</text><text transform="translate(567 1348.5)">Day 14</text></g><path stroke="#292b2b" d="M59.5 1333.5h580" class="mark-rule role-axis-domain"/><text fill="#292b2b" class="mark-text role-axis-title" font-family="Matter XH, DM Sans, sans-serif" font-size="11" text-anchor="middle" transform="translate(349.5 1363.5)">Lead day (the four fitted days are spaced evenly)</text></g><g aria-label="Y-axis titled 'ENS mean-vector reference mean absolute error (% of capacity; smaller is better)' for a linear scale with values from 4 to 28" aria-roledescription="axis" class="mark-group role-axis" pointer-events="none"><path stroke="#292b2b" d="M59.5 1331.5h-5m5-25h-5m5-24h-5m5-25h-5m5-24h-5m5-25h-5m5-24h-5m5-25h-5m5-24h-5m5-25h-5m5-24h-5m5-25h-5m5-24h-5" class="mark-rule role-axis-tick"/><g fill="#292b2b" class="mark-text role-axis-label" font-family="Matter Semi Mono, Roboto Mono, monospace" font-size="10" text-anchor="end"><text transform="translate(52.5 1334)">4</text><text transform="translate(52.5 1309.6)">6</text><text transform="translate(52.5 1285)">8</text><text transform="translate(52.5 1260.6)">10</text><text transform="translate(52.5 1236)">12</text><text transform="translate(52.5 1211.6)">14</text><text transform="translate(52.5 1187.1)">16</text><text transform="translate(52.5 1162.6)">18</text><text transform="translate(52.5 1138.1)">20</text><text transform="translate(52.5 1113.6)">22</text><text transform="translate(52.5 1089.2)">24</text><text transform="translate(52.5 1064.7)">26</text><text transform="translate(52.5 1040.2)">28</text></g><path stroke="#292b2b" d="M59.5 1333.5v-300" class="mark-rule role-axis-domain"/><text fill="#292b2b" class="mark-text role-axis-title" font-family="Matter XH, DM Sans, sans-serif" font-size="11" text-anchor="middle" transform="rotate(-90 602.5 581)"><tspan>ENS mean-vector reference mean absolute error</tspan><tspan x="0" dy="13">(% of capacity; smaller is better)</tspan></text></g><g stroke-width="1.5" aria-hidden="true" class="mark-rule role-mark concat_3_layer_0_marks"><path stroke="#10c5f7" d="M122.8 1297.3v-38.4"/><path stroke="#ff4901" d="M131.5 1306.5v-41"/><path stroke="#306bff" d="M140.2 1300.8v-32.5"/><path stroke="#10c5f7" d="M267.8 1295v-74.2"/><path stroke="#ff4901" d="M276.5 1293.4v-59"/><path stroke="#306bff" d="M285.2 1288.4V1239"/><path stroke="#10c5f7" d="M412.8 1188.6V1066"/><path stroke="#ff4901" d="M421.5 1243.7v-44.1"/><path stroke="#306bff" d="M430.2 1221.6v-111.2"/><path stroke="#10c5f7" d="M557.8 1091.3v-32.5"/><path stroke="#ff4901" d="M566.5 1254.3V1200"/><path stroke="#306bff" d="M575.2 1207.8v-130"/></g><path stroke="#292b2b" stroke-dasharray="2,2" d="M127.2 1297.2v-38.6m8.7 48.7v-35.9m8.7 30.2v-33.4m127.6 30.8v-78m8.7 75v-60.2m8.7 55.1v-51.3m127.6-37.3v-131.8m8.7 171.8V1200m8.7 23.8v-113.4m127.6-37.2v-10.3m8.6 189.1v-49m8.8 5.4v-132" aria-hidden="true" class="mark-rule role-mark concat_3_layer_1_marks"/><g stroke-width="1.5" aria-hidden="true" class="mark-symbol role-mark concat_3_layer_2_marks"><path stroke="#10c5f7" d="m119 1273.2 3.8-3.9 3.9 4-3.9 3.8Z"/><path stroke="#ff4901" d="m127.6 1297.4 3.9-3.9 3.9 4-3.9 3.8Z"/><path stroke="#306bff" d="m136.3 1284.9 3.9-3.9 3.9 3.9-3.9 3.9Z"/><path stroke="#10c5f7" d="m264 1249.7 3.8-4 3.9 4-3.9 3.8Z"/><path stroke="#ff4901" d="m272.6 1284.5 3.9-3.8 3.9 3.8-3.9 4Z"/><path stroke="#306bff" d="m281.3 1264.7 3.9-4 3.9 4-3.9 3.8Z"/><path stroke="#10c5f7" d="m409 1116.7 3.8-3.8 3.9 3.8-3.9 4Z"/><path stroke="#ff4901" d="m417.6 1233.5 3.9-3.9 3.9 3.9-3.9 3.9Z"/><path stroke="#306bff" d="m426.3 1166.5 3.9-3.8 3.9 3.8-3.9 3.9Z"/><path stroke="#10c5f7" d="m554 1073.2 3.8-3.8 3.9 3.8-3.9 4Z"/><path stroke="#ff4901" d="m562.6 1240.4 3.9-3.8 3.9 3.8-3.9 4Z"/><path stroke="#306bff" d="m571.3 1145.7 3.9-3.9 3.9 3.9-3.9 3.9Z"/></g><path stroke="#292b2b" stroke-width="1.5" d="M124.4 1269.5h5.5v5.4h-5.5Zm8.7 26.3h5.5v5.5H133Zm8.7-13.7h5.5v5.5h-5.5Zm127.6-34.1h5.5v5.5h-5.5Zm8.7 36.2h5.5v5.5H278Zm8.7-20.7h5.5v5.5h-5.5Zm127.6-148.8h5.5v5.5h-5.5Zm8.7 115.8h5.5v5.5H423Zm8.7-66.6h5.5v5.5h-5.5Zm127.6-97.9h5.5v5.5h-5.5Zm8.7 173.3h5.5v5.5H568Zm8.7-98.3h5.5v5.5h-5.5Z" aria-hidden="true" class="mark-symbol role-mark concat_3_layer_3_marks" opacity=".7"/></g><g fill="#292b2b" class="mark-group role-title" font-family="Matter XH, DM Sans, sans-serif" pointer-events="none"><text aria-label="Title text 'Figure 18: WeatherNext 3's error against ENS mean-vector reference for the three wind farms, in the months before July, from July, and pooled'" aria-roledescription="title" class="mark-text role-title-text" font-size="18" transform="translate(6 19)"><tspan>Figure 18: WeatherNext 3&apos;s error against ENS mean-vector reference for</tspan><tspan x="0" dy="20">the three wind farms, in the months before July, from July, and pooled</tspan></text><text aria-label="Subtitle text 'Each mark is an XGBoost model's error, given one forecast product, in percent of capacity, or the difference between two such models in points of capacity. Top panel: WeatherNext 3's error minus the reference's, on the same rows. Lower panels: each product's own error. Dot: estimate. Line: 95% interval from resampling whole months. Filled dots are WeatherNext 3; hollow diamonds are the reference. A hollow black square with a dashed line, just right of a dot, is the same quantity at the sensitivity XGBoost setting. The three colours are three groups of the same out-of-fold rows: February to June 2026 (4 calendar months, no May rows), July to September 2026 (3 months), and every row from February to September 2026 (7 months, no May rows). The second group is the only group after every training end the WeatherNext 3 paper lists, so it checks whether a change of model version at the start of July shows in the scores; the third group, which mixes both, is the leaderboards' WeatherNext 3 row. The second group's intervals resample only 3 months, fewer than the 6 that support an interval, so they show the range of the months and are indicative only. Each calendar month occurs in one year only, so every contrast is descriptive. Every product is scored on exactly the same hours. Every error is a fraction of the generator's own capacity, taken as its 99th percentile of metered output.'" aria-roledescription="subtitle" class="mark-text role-title-subtitle" font-size="11" transform="translate(6 58)"><tspan>Each mark is an XGBoost model&apos;s error, given one forecast product, in percent of capacity, or the difference</tspan><tspan x="0" dy="13">between two such models in points of capacity. Top panel: WeatherNext 3&apos;s error minus the reference&apos;s, on the same</tspan><tspan x="0" dy="13">rows. Lower panels: each product&apos;s own error. Dot: estimate. Line: 95% interval from resampling whole months.</tspan><tspan x="0" dy="13">Filled dots are WeatherNext 3; hollow diamonds are the reference. A hollow black square with a dashed line, just</tspan><tspan x="0" dy="13">right of a dot, is the same quantity at the sensitivity XGBoost setting.</tspan><tspan x="0" dy="13">The three colours are three groups of the same out-of-fold rows: February to June 2026 (4 calendar months, no May</tspan><tspan x="0" dy="13">rows), July to September 2026 (3 months), and every row from February to September 2026 (7 months, no May rows).</tspan><tspan x="0" dy="13">The second group is the only group after every training end the WeatherNext 3 paper lists, so it checks whether a</tspan><tspan x="0" dy="13">change of model version at the start of July shows in the scores; the third group, which mixes both, is the</tspan><tspan x="0" dy="13">leaderboards&apos; WeatherNext 3 row. The second group&apos;s intervals resample only 3 months, fewer than the 6 that support</tspan><tspan x="0" dy="13">an interval, so they show the range of the months and are indicative only. Each calendar month occurs in one year</tspan><tspan x="0" dy="13">only, so every contrast is descriptive.</tspan><tspan x="0" dy="13">Every product is scored on exactly the same hours. Every error is a fraction of the generator&apos;s own capacity, taken</tspan><tspan x="0" dy="13">as its 99th percentile of metered output.</tspan></text></g></g></svg>
