<svg xmlns="http://www.w3.org/2000/svg" width="681" height="776" class="marks" viewBox="0 0 681 776"><path fill="#fffbf5" d="M0 0h681v776H0z"/><g fill="none" stroke-miterlimit="10" aria-roledescription="group mark container" class="mark-group role-frame root"><path d="M225 167h450z" aria-hidden="true" class="background"/><g aria-roledescription="group mark container" class="mark-group role-scope concat_0_group"><g aria-roledescription="group mark container" class="mark-group role-scope concat_0_concat_0_group"><path fill="#fffbf5" d="M225 167h450v16H225Z" aria-hidden="true" class="background"/><g aria-roledescription="symbol mark container" class="mark-symbol role-mark concat_0_concat_0_layer_0_marks"><path fill="#ff4901" d="M235.2 175a4.2 4.2 0 1 1-8.4 0 4.2 4.2 0 1 1 8.4 0" aria-label="x: 6; colour: #FF4901; shape: circle" aria-roledescription="point"/><path fill="#10c5f7" d="M385.2 175a4.2 4.2 0 1 1-8.4 0 4.2 4.2 0 1 1 8.4 0" aria-label="x: 156; colour: #10C5F7; shape: circle" aria-roledescription="point"/><path fill="#306bff" d="M535.2 175a4.2 4.2 0 1 1-8.4 0 4.2 4.2 0 1 1 8.4 0" aria-label="x: 306; colour: #306BFF; shape: circle" aria-roledescription="point"/></g><g fill="#292b2b" aria-roledescription="text mark container" class="mark-text role-mark concat_0_concat_0_layer_2_marks" font-family="Matter XH, DM Sans, sans-serif" font-size="11"><text aria-label="x: 6; label: satellite" aria-roledescription="text mark" transform="translate(243 178)">satellite</text><text aria-label="x: 156; label: reanalysis" aria-roledescription="text mark" transform="translate(393 178)">reanalysis</text><text aria-label="x: 306; label: weather model" aria-roledescription="text mark" transform="translate(543 178)">weather model</text></g><g class="mark-group role-title"><text fill="#292b2b" aria-label="Title text 'Product type'" aria-roledescription="title" class="mark-text role-title-text" font-family="Matter XH, DM Sans, sans-serif" font-size="11" pointer-events="none" transform="translate(225 161)">Product type</text></g></g><g aria-roledescription="group mark container" class="mark-group role-scope concat_0_concat_1_group"><path fill="#fffbf5" d="M225 224h450v240H225Z" aria-hidden="true" class="background"/><g aria-hidden="true" class="mark-group role-axis"><path stroke="#eaeaea" d="M266.5 464.5v-240m82 240v-240m82 240v-240m81 240v-240m82 240v-240m82 240v-240" class="mark-rule role-axis-grid" pointer-events="none"/></g><g aria-label="X-axis titled 'Mean absolute error minus ERA5's (points of capacity; more negative means better than ERA5)' for a linear scale with values from −4.5 to 1" aria-roledescription="axis" class="mark-group role-axis" pointer-events="none"><path stroke="#292b2b" d="M266.5 464.5v5m82-5v5m82-5v5m81-5v5m82-5v5m82-5v5" class="mark-rule role-axis-tick"/><g fill="#292b2b" class="mark-text role-axis-label" font-family="Matter Semi Mono, Roboto Mono, monospace" font-size="10"><text text-anchor="middle" transform="translate(266.4 479.5)">−4</text><text text-anchor="middle" transform="translate(348.2 479.5)">−3</text><text text-anchor="middle" transform="translate(430 479.5)">−2</text><text text-anchor="middle" transform="translate(511.9 479.5)">−1</text><text text-anchor="middle" transform="translate(593.7 479.5)">0</text><text text-anchor="end" transform="translate(675.5 479.5)">1</text></g><path stroke="#292b2b" d="M225.5 464.5h450" class="mark-rule role-axis-domain"/><text fill="#292b2b" class="mark-text role-axis-title" font-family="Matter XH, DM Sans, sans-serif" font-size="11" text-anchor="middle" transform="translate(450.5 494.5)"><tspan>Mean absolute error minus ERA5&apos;s (points of capacity; more negative means</tspan><tspan x="0" dy="13">better than ERA5)</tspan></text></g><g aria-label="Y-axis for a discrete scale with 6 values: CAMS · 5.11%, ICON-D2 · 7.80%, ICON-EU · 8.41%, ICON global · 8.51%, UKV, Open-Meteo's hourly value · 8.92%, ERA5 · 9.10%" aria-roledescription="axis" class="mark-group role-axis"><g fill="#292b2b" class="mark-text role-axis-label" font-family="Matter Semi Mono, Roboto Mono, monospace" font-size="10" pointer-events="none" text-anchor="end"><text transform="translate(219.5 247)">CAMS · 5.11%</text><text transform="translate(219.5 287)">ICON-D2 · 7.80%</text><text transform="translate(219.5 327)">ICON-EU · 8.41%</text><text transform="translate(219.5 367)">ICON global · 8.51%</text><text transform="translate(219.5 407)"><tspan>UKV, Open-Meteo&apos;s hourly value</tspan><tspan x="0" dy="12">· 8.92%</tspan></text><text transform="translate(219.5 447)">ERA5 · 9.10%</text></g></g><g aria-roledescription="rule mark container" class="mark-rule role-mark concat_0_concat_1_layer_0_marks"><path stroke="#292b2b" d="M593.2 224v240" aria-label="x: 0" aria-roledescription="rule mark"/></g><g aria-roledescription="text mark container" class="mark-text role-mark concat_0_concat_1_layer_1_marks"><text fill="#292b2b" aria-label="x: 0" aria-roledescription="text mark" font-family="Matter XH, DM Sans, sans-serif" font-size="11" text-anchor="end" transform="translate(589.2 218)">same as ERA5</text></g><g aria-roledescription="text mark container" class="mark-text role-mark concat_0_concat_1_layer_2_marks"><text fill="#292b2b" aria-label="x: −4.5" aria-roledescription="text mark" font-family="Matter XH, DM Sans, sans-serif" font-size="11" font-weight="bold" transform="translate(225 218)">← better than ERA5</text></g><g stroke-width="2" aria-hidden="true" class="mark-rule role-mark concat_0_concat_1_layer_3_marks" clip-path="url(#a)" transform="translate(225 224)"><path stroke="#ff4901" d="M15.9 20h52.6"/><path stroke="#306bff" d="M242 60h39.6m12.9 40h33.7m-26.9 40h35.9m1.9 40h27.2"/></g><g aria-roledescription="symbol mark container" class="mark-symbol role-mark concat_0_concat_1_layer_4_marks" clip-path="url(#b)" transform="translate(225 224)"><path fill="#ff4901" d="M45.5 20a4.2 4.2 0 1 1-8.4 0 4.2 4.2 0 1 1 8.4 0" aria-label="Mean absolute error minus ERA5's (points of capacity; more negative means, better than ERA5): −4; label: CAMS · 5.11%; shade: satellite; Row: CAMS · 5.11%; Estimate: −3.995; Lower 95%: −4.306; Upper 95%: −3.663" aria-roledescription="point"/><path fill="#306bff" d="M266 60a4.2 4.2 0 1 1-8.4 0 4.2 4.2 0 1 1 8.3 0" aria-label="Mean absolute error minus ERA5's (points of capacity; more negative means, better than ERA5): −1.3; label: ICON-D2 · 7.80%; shade: weather model; Row: ICON-D2 · 7.80%; Estimate: −1.301; Lower 95%: −1.542; Upper 95%: −1.058" aria-roledescription="point"/><path fill="#306bff" d="M315.8 100a4.2 4.2 0 1 1-8.3 0 4.2 4.2 0 1 1 8.3 0" aria-label="Mean absolute error minus ERA5's (points of capacity; more negative means, better than ERA5): −0.69; label: ICON-EU · 8.41%; shade: weather model; Row: ICON-EU · 8.41%; Estimate: −0.691; Lower 95%: −0.901; Upper 95%: −0.489" aria-roledescription="point"/><path fill="#306bff" d="M323.7 140a4.2 4.2 0 1 1-8.4 0 4.2 4.2 0 1 1 8.4 0" aria-label="Mean absolute error minus ERA5's (points of capacity; more negative means, better than ERA5): −0.59; label: ICON global · 8.51%; shade: weather model; Row: ICON global · 8.51%; Estimate: −0.595; Lower 95%: −0.818; Upper 95%: −0.379" aria-roledescription="point"/><path fill="#306bff" d="M357.5 180a4.2 4.2 0 1 1-8.4 0 4.2 4.2 0 1 1 8.4 0" aria-label="Mean absolute error minus ERA5's (points of capacity; more negative means, better than ERA5): −0.18; label: UKV, Open-Meteo's hourly value · 8.92%; shade: weather model; Row: UKV, Open-Meteo's hourly value · 8.92%; Estimate: −0.182; Lower 95%: −0.355; Upper 95%: −0.022" aria-roledescription="point"/><path fill="#10c5f7" d="M372.4 220a4.2 4.2 0 1 1-8.4 0 4.2 4.2 0 1 1 8.4 0" aria-label="Mean absolute error minus ERA5's (points of capacity; more negative means, better than ERA5): 0; label: ERA5 · 9.10%; shade: reanalysis; Row: ERA5 · 9.10%; Estimate: 0; Lower 95%: 0; Upper 95%: 0" aria-roledescription="point"/></g><g class="mark-group role-title"><text fill="#292b2b" aria-label="Title text 'Every product against ERA5 (exploratory)'" aria-roledescription="title" class="mark-text role-title-text" font-family="Matter XH, DM Sans, sans-serif" font-size="14" pointer-events="none" transform="translate(225 202)">Every product against ERA5 (exploratory)</text></g></g></g><g aria-roledescription="group mark container" class="mark-group role-scope concat_1_group"><path fill="#fffbf5" d="M225 566h450v160H225Z" aria-hidden="true" class="background"/><g aria-hidden="true" class="mark-group role-axis"><path stroke="#eaeaea" d="M225.5 726.5v-160m56 160v-160m57 160v-160m56 160v-160m56 160v-160m56 160v-160m57 160v-160m56 160v-160m56 160v-160" class="mark-rule role-axis-grid" pointer-events="none"/></g><g aria-label="X-axis titled 'Difference in mean absolute error (points of capacity; more negative means first product better)' for a linear scale with values from −3 to 1" aria-roledescription="axis" class="mark-group role-axis" pointer-events="none"><path stroke="#292b2b" d="M225.5 726.5v5m56-5v5m57-5v5m56-5v5m56-5v5m56-5v5m57-5v5m56-5v5m56-5v5" class="mark-rule role-axis-tick"/><g fill="#292b2b" class="mark-text role-axis-label" font-family="Matter Semi Mono, Roboto Mono, monospace" font-size="10"><text transform="translate(225.5 741.5)">−3</text><text text-anchor="middle" transform="translate(281.8 741.5)">−2.5</text><text text-anchor="middle" transform="translate(338 741.5)">−2</text><text text-anchor="middle" transform="translate(394.3 741.5)">−1.5</text><text text-anchor="middle" transform="translate(450.5 741.5)">−1</text><text text-anchor="middle" transform="translate(506.8 741.5)">−0.5</text><text text-anchor="middle" transform="translate(563 741.5)">0</text><text text-anchor="middle" transform="translate(619.3 741.5)">0.5</text><text text-anchor="end" transform="translate(675.5 741.5)">1</text></g><path stroke="#292b2b" d="M225.5 726.5h450" class="mark-rule role-axis-domain"/><text fill="#292b2b" class="mark-text role-axis-title" font-family="Matter XH, DM Sans, sans-serif" font-size="11" text-anchor="middle" transform="translate(450.5 756.5)"><tspan>Difference in mean absolute error (points of capacity; more negative means</tspan><tspan x="0" dy="13">first product better)</tspan></text></g><g aria-label="Y-axis for a discrete scale with 4 values: CAMS − ICON-D2 (planned), ICON-EU − ICON-D2 (planned), ICON-EU − Open-Meteo's hourly UKV (planned), ICON global − ICON-EU (planned)" aria-roledescription="axis" class="mark-group role-axis"><g fill="#292b2b" class="mark-text role-axis-label" font-family="Matter Semi Mono, Roboto Mono, monospace" font-size="10" font-weight="bold" pointer-events="none" text-anchor="end"><text transform="translate(219.5 589)">CAMS − ICON-D2 (planned)</text><text transform="translate(219.5 629)">ICON-EU − ICON-D2 (planned)</text><text transform="translate(219.5 669)"><tspan>ICON-EU − Open-Meteo&apos;s hourly</tspan><tspan x="0" dy="12">UKV (planned)</tspan></text><text transform="translate(219.5 709)"><tspan>ICON global − ICON-EU</tspan><tspan x="0" dy="12">(planned)</tspan></text></g></g><g aria-roledescription="rule mark container" class="mark-rule role-mark concat_1_layer_0_marks"><path stroke="#292b2b" d="M562.5 566v160" aria-label="x: 0" aria-roledescription="rule mark"/></g><g aria-roledescription="text mark container" class="mark-text role-mark concat_1_layer_1_marks"><text fill="#292b2b" aria-label="x: 0" aria-roledescription="text mark" font-family="Matter XH, DM Sans, sans-serif" font-size="11" transform="translate(566.5 560)">no difference</text></g><g aria-roledescription="text mark container" class="mark-text role-mark concat_1_layer_2_marks"><text fill="#292b2b" aria-label="x: −3" aria-roledescription="text mark" font-family="Matter XH, DM Sans, sans-serif" font-size="11" font-weight="bold" transform="translate(225 560)">← first product better</text></g><g stroke-width="2" aria-hidden="true" class="mark-rule role-mark concat_1_layer_3_marks" clip-path="url(#c)" transform="translate(225 566)"><path stroke="#ff4901" d="M8.1 20h53.4"/><path stroke="#306bff" d="M390.8 60H420m-160 40h41.6m41.2 40h11"/></g><g aria-roledescription="symbol mark container" class="mark-symbol role-mark concat_1_layer_4_marks" clip-path="url(#d)" transform="translate(225 566)"><path fill="#ff4901" d="M38.6 20a4.2 4.2 0 1 1-8.4 0 4.2 4.2 0 1 1 8.4 0" aria-label="Difference in mean absolute error (points of capacity; more negative means, first product better): −2.69; label: CAMS − ICON-D2 (planned); shade: satellite; Row: CAMS − ICON-D2 (planned); Estimate: −2.694; Lower 95%: −2.928; Upper 95%: −2.453" aria-roledescription="point"/><path fill="#306bff" d="M410.3 60a4.2 4.2 0 1 1-8.4 0 4.2 4.2 0 1 1 8.4 0" aria-label="Difference in mean absolute error (points of capacity; more negative means, first product better): 0.61; label: ICON-EU − ICON-D2 (planned); shade: weather model; Row: ICON-EU − ICON-D2 (planned); Estimate: 0.61; Lower 95%: 0.474; Upper 95%: 0.733" aria-roledescription="point"/><path fill="#306bff" d="M284.4 100a4.2 4.2 0 1 1-8.3 0 4.2 4.2 0 1 1 8.3 0" aria-label="Difference in mean absolute error (points of capacity; more negative means, first product better): −0.51; label: ICON-EU − Open-Meteo's hourly UKV (planned); shade: weather model; Row: ICON-EU − Open-Meteo's hourly UKV (planned); Estimate: −0.509; Lower 95%: −0.689; Upper 95%: −0.319" aria-roledescription="point"/><path fill="#306bff" d="M352.5 140a4.2 4.2 0 1 1-8.4 0 4.2 4.2 0 1 1 8.4 0" aria-label="Difference in mean absolute error (points of capacity; more negative means, first product better): 0.1; label: ICON global − ICON-EU (planned); shade: weather model; Row: ICON global − ICON-EU (planned); Estimate: 0.096; Lower 95%: 0.047; Upper 95%: 0.145" aria-roledescription="point"/></g><g class="mark-group role-title"><text fill="#292b2b" aria-label="Title text 'The four planned contrasts'" aria-roledescription="title" class="mark-text role-title-text" font-family="Matter XH, DM Sans, sans-serif" font-size="14" pointer-events="none" transform="translate(225 544)">The four planned contrasts</text></g></g><g fill="#292b2b" class="mark-group role-title" font-family="Matter XH, DM Sans, sans-serif" pointer-events="none"><text aria-label="Title text 'Figure 2: CAMS beats the next best product, ICON-D2, by more than 2 points of capacity'" aria-roledescription="title" class="mark-text role-title-text" font-size="18" transform="translate(5 19)"><tspan>Figure 2: CAMS beats the next best product, ICON-D2, by more than 2</tspan><tspan x="0" dy="20">points of capacity</tspan></text><text aria-label="Subtitle text 'Top: each product against ERA5 (exploratory); each label gives the product's own error. Bottom: the four planned contrasts. Dot: estimate. Line: 95% interval from resampling whole months. Capacity is each generator's 99th-percentile output. Six solar farms in Lincolnshire, December 2022 to September 2026. Planned: one of the comparisons written into the study plan before any result existed. Every other row is exploratory.'" aria-roledescription="subtitle" class="mark-text role-title-subtitle" font-size="11" transform="translate(5 58)"><tspan>Top: each product against ERA5 (exploratory); each label gives the product&apos;s own error. Bottom: the four planned</tspan><tspan x="0" dy="13">contrasts.</tspan><tspan x="0" dy="13">Dot: estimate. Line: 95% interval from resampling whole months. Capacity is each generator&apos;s 99th-percentile</tspan><tspan x="0" dy="13">output.</tspan><tspan x="0" dy="13">Six solar farms in Lincolnshire, December 2022 to September 2026.</tspan><tspan x="0" dy="13">Planned: one of the comparisons written into the study plan before any result existed. Every other row is</tspan><tspan x="0" dy="13">exploratory.</tspan></text></g></g><defs><clipPath id="a"><path d="M0 0h450v240H0z"/></clipPath><clipPath id="b"><path d="M0 0h450v240H0z"/></clipPath><clipPath id="c"><path d="M0 0h450v160H0z"/></clipPath><clipPath id="d"><path d="M0 0h450v160H0z"/></clipPath></defs></svg>
