<svg xmlns="http://www.w3.org/2000/svg" width="621" height="989" class="marks" viewBox="0 0 621 989"><path fill="#fffbf5" d="M0 0h621v989H0z"/><g fill="none" stroke-miterlimit="10" aria-roledescription="group mark container" class="mark-group role-frame root"><g aria-roledescription="group mark container" class="mark-group role-scope concat_0_group"><path fill="#fffbf5" d="M46 116h570v195H46Z" aria-hidden="true" class="background"/><g aria-hidden="true" class="mark-group role-axis"><path stroke="#eaeaea" d="M46.5 311.5v-195m91 195v-195m99 195v-195m91 195v-195m99 195v-195m91 195v-195" class="mark-rule role-axis-grid" pointer-events="none"/></g><g aria-label="X-axis titled 'Posterior power as a multiple of the true power (1 = exact; log axis, ends clipped)' for a log scale with values from 0.1 to 100" aria-roledescription="axis" class="mark-group role-axis" pointer-events="none"><path stroke="#292b2b" d="M46.5 311.5v5m91-5v5m99-5v5m91-5v5m99-5v5m91-5v5" class="mark-rule role-axis-tick"/><g fill="#292b2b" class="mark-text role-axis-label" font-family="Matter Semi Mono, Roboto Mono, monospace" font-size="10"><text transform="translate(46.5 326.5)">0.1</text><text text-anchor="middle" transform="translate(137.2 326.5)">0.3</text><text text-anchor="middle" transform="translate(236.5 326.5)">1</text><text text-anchor="middle" transform="translate(327.2 326.5)">3</text><text text-anchor="middle" transform="translate(426.5 326.5)">10</text><text text-anchor="middle" transform="translate(517.2 326.5)">30</text></g><path stroke="#292b2b" d="M46.5 311.5h570" class="mark-rule role-axis-domain"/><text fill="#292b2b" class="mark-text role-axis-title" font-family="Matter XH, DM Sans, sans-serif" font-size="11" text-anchor="middle" transform="translate(331.5 341.5)">Posterior power as a multiple of the true power (1 = exact; log axis, ends clipped)</text></g><g stroke-width="1.2" aria-hidden="true" class="mark-rule role-mark concat_0_layer_0_marks"><path stroke="#306bff" d="M63.4 116.9H359m-313 1.8h338.4m-300.8 1.8h252.9M49 122.3h330m-309.2 1.8h280.3M72.4 126h285m-269.7 1.7h265.8m-256.2 1.8h259.6m-280.2 1.8H359m-246.7 1.9H345M105.6 135h225m-211.2 1.8h214.2m-228.7 1.8h247m-219.1 1.8H325m-229.2 1.8h273.8M114.7 144h229.9m-198.8 1.8h173.6M124 147.6h223.8m-205.9 1.8h190.8m-185.3 1.8H326M109.5 153h259.8m-230.6 1.8h207m-205.4 1.8h203.3M149 158.4h193.2m-177.5 1.8h152.6M159.5 162h170.3m-190.5 1.8H352m-215.4 1.9h221.6m-203.4 1.8h184.6m-190 1.8h203.9m-233 1.7H392m-209.6 1.9H326m-172.9 1.8h202m-225.2 1.8h255.9m-228.6 1.8h198.4m-176.7 1.8h152.9M131 181.9h253.4M200 183.7h114m-189.3 1.8h273.6m-253.2 1.8h232.7m-194.7 1.8h158.1M199.6 191h122.3m-135 1.7h151.2M138 194.5h254.5m-259.1 1.8h264.3m-238.1 1.9h222M156 200h221m-295.4 1.8h365.2m-283.7 1.8h211.5m-290.8 1.8h364.3m-259.6 1.8h166.9M150.5 209h239m-225.3 1.8h212.4m-264.8 1.8h331.6M128 214.4h298.2M165 216.2h228.3M127.5 218H427m-258.1 1.8h224m-206.5 1.8h186.4m-205.4 1.8H393m-246.3 1.8h271M145 227h275m-265.5 1.8H418m-285.4 1.9h302m-253.9 1.8h208.6M135 234.3h301M157.5 236h261.4m-266.2 1.9H423m-235.6 1.8h204.3M164 241.5h256.7m-252.4 1.8h248m-257.2 1.8h267.4m-265.3 1.8H443m-283 1.8h274.9m-267.5 1.8h270.3m-269.8 1.8h254m-264.4 1.8h295M153 256h302.8m-276 1.7h252.5M171 259.5h276.4m-255.7 1.8H427m-245.5 1.9h264.9M184 265h263.5m-256.2 1.8h253m-268 1.8H473m-281.2 1.8h260.5M189 272.2h277M182 274h288.6m-264.3 1.8h255.5m-261.5 1.8h265.5m-278 1.8H468m-269.6 1.8h256.2M192.4 283h273.8m-252.9 1.8h246.4M199 286.6h263.6m-264 1.8h270m-256.8 1.8h242.6M206.3 292h262M215 293.8h249m-235.4 1.9h250.8m-250.7 1.8h246.7m-240.1 1.8h238.5"/><path stroke="#ff4901" d="M267.5 301H507m-236.5 1.9h236.2m-232 1.8H507m-229.1 1.8h232.8m-231.4 1.8h231.4m-228.9 1.8h230"/></g><path stroke="#292b2b" stroke-dasharray="4,3" d="M236 116v195" aria-hidden="true" class="mark-rule role-mark concat_0_layer_1_marks"/><g aria-label="Symbol legend for stroke color with 2 values: Interval holds the truth, Interval misses the truth" aria-roledescription="legend" class="mark-group role-legend"><path d="M46 361h339v11H46Z" aria-hidden="true" class="background" pointer-events="none"/><g class="mark-group role-legend-entry"><g aria-roledescription="group mark container" class="mark-group role-scope" pointer-events="none"><path d="M46 361h160v11H46Z" aria-hidden="true" class="background"/><path stroke="#306bff" stroke-width="1.5" d="M47 367h10" class="mark-symbol role-legend-symbol"/><text fill="#292b2b" class="mark-text role-legend-label" font-family="Matter Semi Mono, Roboto Mono, monospace" font-size="10" transform="translate(62 370)">Interval holds the truth</text><path d="M218 361h166v11H218Z" aria-hidden="true" class="background"/><path stroke="#ff4901" stroke-width="1.5" d="M219 367h10" class="mark-symbol role-legend-symbol"/><text fill="#292b2b" class="mark-text role-legend-label" font-family="Matter Semi Mono, Roboto Mono, monospace" font-size="10" transform="translate(234 370)">Interval misses the truth</text></g></g></g><g class="mark-group role-title"><text fill="#292b2b" aria-label="Title text 'In the estimator's family, 2% share: 102 of 108 intervals hold the truth'" aria-roledescription="title" class="mark-text role-title-text" font-family="Matter XH, DM Sans, sans-serif" font-size="18" pointer-events="none" transform="translate(44.8 107)">In the estimator&apos;s family, 2% share: 102 of 108 intervals hold the truth</text></g></g><g aria-roledescription="group mark container" class="mark-group role-scope concat_1_group"><path fill="#fffbf5" d="M46 419h570v195H46Z" aria-hidden="true" class="background"/><g aria-hidden="true" class="mark-group role-axis"><path stroke="#eaeaea" d="M46.5 614.5v-195m91 195v-195m99 195v-195m91 195v-195m99 195v-195m91 195v-195" class="mark-rule role-axis-grid" pointer-events="none"/></g><g aria-label="X-axis titled 'Posterior power as a multiple of the true power (1 = exact; log axis, ends clipped)' for a log scale with values from 0.1 to 100" aria-roledescription="axis" class="mark-group role-axis" pointer-events="none"><path stroke="#292b2b" d="M46.5 614.5v5m91-5v5m99-5v5m91-5v5m99-5v5m91-5v5" class="mark-rule role-axis-tick"/><g fill="#292b2b" class="mark-text role-axis-label" font-family="Matter Semi Mono, Roboto Mono, monospace" font-size="10"><text transform="translate(46.5 629.5)">0.1</text><text text-anchor="middle" transform="translate(137.2 629.5)">0.3</text><text text-anchor="middle" transform="translate(236.5 629.5)">1</text><text text-anchor="middle" transform="translate(327.2 629.5)">3</text><text text-anchor="middle" transform="translate(426.5 629.5)">10</text><text text-anchor="middle" transform="translate(517.2 629.5)">30</text></g><path stroke="#292b2b" d="M46.5 614.5h570" class="mark-rule role-axis-domain"/><text fill="#292b2b" class="mark-text role-axis-title" font-family="Matter XH, DM Sans, sans-serif" font-size="11" text-anchor="middle" transform="translate(331.5 644.5)">Posterior power as a multiple of the true power (1 = exact; log axis, ends clipped)</text></g><g stroke-width="1.2" aria-hidden="true" class="mark-rule role-mark concat_1_layer_0_marks"><path stroke="#306bff" d="M70.4 419.9h184.7M74 421.7h184m-171 1.8h168.3m-150.5 1.8h150.4m-152.4 1.8h152.9M121.4 429h134.3"/><path stroke="#ff4901" d="M153.9 430.7h72.4m-72 1.8H230m-80.3 1.8h83.7m-73.6 1.9H228"/><path stroke="#306bff" d="M151.6 438h85.8"/><path stroke="#ff4901" d="M175.3 439.8H216m-40 1.8h44.6m-56.8 1.8h68.8m-61.8 1.8H225m-42.7 1.8h32.5m-21.7 1.8h14m-25.1 1.8h36.5m-28.5 1.8h23.8m-18.5 1.8h13m-15 1.8h17.5m-30.9 1.8h44.7m-40.6 1.8h36.6m-43 1.8h49.5m-51.1 1.8h50.8m-29.1 1.8H208m-13 1.8h15.4"/><path stroke="#306bff" d="M170 468.7h69.3"/><path stroke="#ff4901" d="M172 470.5h62.6m-44 1.8h25m-20.5 1.7h16.3"/><path stroke="#306bff" d="M159.3 475.9h89.3"/><path stroke="#ff4901" d="M175.3 477.7h56.4m-40.4 1.8H216m-29.7 1.8h36"/><path stroke="#306bff" d="M174.8 483.1h61.3"/><path stroke="#ff4901" d="M197.5 484.9h13.8m-21.3 1.8h29.2m-24.2 1.8h19.3m-18.3 1.8h17.2m-35.2 1.8h52.8m-41.3 1.9h29.6m-29.1 1.7h29.9m-20.1 1.8H211"/><path stroke="#306bff" d="M173 499.3h64.7m-66.1 1.9H238"/><path stroke="#ff4901" d="M195.9 503h19.3m-17.2 1.8h16.1m-19.7 1.8h23"/><path stroke="#306bff" d="M168.3 508.4H244"/><path stroke="#ff4901" d="M184.7 510.2h43.6"/><path stroke="#306bff" d="M175.5 512h65"/><path stroke="#ff4901" d="M185.8 513.8h41.9m-40.7 1.8h40.2m-49.7 1.8h57.2"/><path stroke="#306bff" d="M179 519.2h58.2"/><path stroke="#ff4901" d="M197.5 521h19.3m-26.3 1.8h33.3m-33.1 1.8h33.6m-43 1.8h51m-49.3 1.8h50.2"/><path stroke="#306bff" d="M180.4 530h56.7"/><path stroke="#ff4901" d="M197.4 531.8h22.4m-22.3 1.9H220"/><path stroke="#306bff" d="M182 535.5h54.2"/><path stroke="#ff4901" d="M196.7 537.3h25m-19.4 1.7h14.5m-19.1 1.9h25m-25.1 1.8h26.1m-21.5 1.8h17m-27.1 1.8h37.7m-32.8 1.8h27.7m-32.1 1.8h38.7m-30.9 1.8h21.8m-20.3 1.8h19.7m-22.7 1.8h25.5m-21.4 1.8h17m-14 1.9h14.7m-16.2 1.7H223"/><path stroke="#306bff" d="M188.8 562.5h49.9"/><path stroke="#ff4901" d="M202.8 564.3h21.9m-25.1 1.9H229m-21.4 1.8h13.3m-24.2 1.8h36.1m-32.8 1.8h32m-28.1 1.8h25.9"/><path stroke="#306bff" d="M196 575.2h41.8m-35.6 1.8h35.3"/><path stroke="#ff4901" d="M213 578.8h15.6m-11.1 1.8h11.9"/><path stroke="#306bff" d="M204 582.4h38m-35 1.8h33"/><path stroke="#ff4901" d="M217.6 586h14.5m-13 1.8h13.3m-13.3 1.8h13.4m-12 1.8h11m-10.5 1.8h10.5m-10.6 1.8h11.4m-11.1 1.8h13.2m-12.1 1.9h11"/><path stroke="#306bff" d="M219.2 600.5h17"/><path stroke="#ff4901" d="M222.3 602.3h12M224 604h9.7m-11.7 1.9h14"/><path stroke="#306bff" d="M221.9 607.7h15.7m-14.4 1.8h13m-13.4 1.8h14.4m-13.2 1.8h12.1"/></g><path stroke="#292b2b" stroke-dasharray="4,3" d="M236 419v195" aria-hidden="true" class="mark-rule role-mark concat_1_layer_1_marks"/><g class="mark-group role-title"><text fill="#292b2b" aria-label="Title text 'Rank-rule battery, 40% share: 27 of 108 intervals hold the truth'" aria-roledescription="title" class="mark-text role-title-text" font-family="Matter XH, DM Sans, sans-serif" font-size="18" pointer-events="none" transform="translate(45 410)">Rank-rule battery, 40% share: 27 of 108 intervals hold the truth</text></g></g><g aria-roledescription="group mark container" class="mark-group role-scope concat_2_group"><path fill="#fffbf5" d="M46 697h285v208H46Z" aria-hidden="true" class="background"/><g aria-hidden="true" class="mark-group role-axis"><path stroke="#eaeaea" d="M46.5 697.5v208m143-208v208m114-208v208" class="mark-rule role-axis-grid" pointer-events="none"/></g><g aria-hidden="true" class="mark-group role-axis"><path stroke="#eaeaea" d="M46.5 905.5h285m-285-42h285m-285-41h285m-285-42h285m-285-41h285m-285-42h285" class="mark-rule role-axis-grid" pointer-events="none"/></g><g aria-label="X-axis titled 'Nominal level of the interval' for a linear scale with values from 0.0 to 1.0" aria-roledescription="axis" class="mark-group role-axis" pointer-events="none"><path stroke="#292b2b" d="M46.5 905.5v5m143-5v5m114-5v5" class="mark-rule role-axis-tick"/><g fill="#292b2b" class="mark-text role-axis-label" font-family="Matter Semi Mono, Roboto Mono, monospace" font-size="10"><text transform="translate(46.5 920.5)">0.0</text><text text-anchor="middle" transform="translate(189 920.5)">0.5</text><text text-anchor="middle" transform="translate(303 920.5)">0.9</text></g><path stroke="#292b2b" d="M46.5 905.5h285" class="mark-rule role-axis-domain"/><text fill="#292b2b" class="mark-text role-axis-title" font-family="Matter XH, DM Sans, sans-serif" font-size="11" text-anchor="middle" transform="translate(189 935.5)">Nominal level of the interval</text></g><g aria-label="Y-axis titled 'Share of sums that hold the truth' for a linear scale with values from 0.0 to 1.0" aria-roledescription="axis" class="mark-group role-axis" pointer-events="none"><path stroke="#292b2b" d="M46.5 905.5h-5m5-42h-5m5-41h-5m5-42h-5m5-41h-5m5-42h-5" class="mark-rule role-axis-tick"/><g fill="#292b2b" class="mark-text role-axis-label" font-family="Matter Semi Mono, Roboto Mono, monospace" font-size="10" text-anchor="end"><text transform="translate(39.5 908.5)">0.0</text><text transform="translate(39.5 866.9)">0.2</text><text transform="translate(39.5 825.3)">0.4</text><text transform="translate(39.5 783.7)">0.6</text><text transform="translate(39.5 742.1)">0.8</text><text transform="translate(39.5 700.5)">1.0</text></g><path stroke="#292b2b" d="M46.5 905.5v-208" class="mark-rule role-axis-domain"/><text fill="#292b2b" class="mark-text role-axis-title" font-family="Matter XH, DM Sans, sans-serif" font-size="11" text-anchor="middle" transform="rotate(-90 408.5 393)">Share of sums that hold the truth</text></g><path stroke="#292b2b" stroke-dasharray="4,3" stroke-width="2" d="m46 905 285-208" aria-hidden="true" class="mark-line role-mark concat_2_layer_0_marks"/><g aria-roledescription="group mark container" class="mark-group role-scope concat_2_layer_1_layer_0_pathgroup"><path d="M46 697h285v208H46Z" aria-hidden="true" class="background"/><path stroke="#306bff" stroke-width="1.8" d="m188.5 781.7 114-73.1" aria-hidden="true" class="mark-line role-mark concat_2_layer_1_layer_0_marks"/><path d="M46 697h285v208H46Z" aria-hidden="true" class="background"/><path stroke="#ff4901" stroke-width="1.8" d="m188.5 905 114-52" aria-hidden="true" class="mark-line role-mark concat_2_layer_1_layer_0_marks"/></g><g aria-roledescription="symbol mark container" class="mark-symbol role-mark concat_2_layer_1_layer_1_marks"><path fill="#306bff" d="M191.2 781.7a2.7 2.7 0 1 1-5.4 0 2.7 2.7 0 1 1 5.4 0" aria-label="Nominal level of the interval: 0.5; Share of sums that hold the truth: 0.592592592593; case: In the estimator's family, 2% share" aria-roledescription="point"/><path fill="#306bff" d="M305.2 708.6a2.7 2.7 0 1 1-5.4 0 2.7 2.7 0 1 1 5.4 0" aria-label="Nominal level of the interval: 0.9; Share of sums that hold the truth: 0.944444444444; case: In the estimator's family, 2% share" aria-roledescription="point"/><path fill="#ff4901" d="M191.2 905a2.7 2.7 0 1 1-5.4 0 2.7 2.7 0 1 1 5.4 0" aria-label="Nominal level of the interval: 0.5; Share of sums that hold the truth: 0; case: Rank-rule battery, 40% share" aria-roledescription="point"/><path fill="#ff4901" d="M305.2 853a2.7 2.7 0 1 1-5.4 0 2.7 2.7 0 1 1 5.4 0" aria-label="Nominal level of the interval: 0.9; Share of sums that hold the truth: 0.25; case: Rank-rule battery, 40% share" aria-roledescription="point"/></g><g aria-label="Symbol legend for fill color and stroke color with 2 values: In the estimator's family, 2% share, Rank-rule battery, 40% share" aria-roledescription="legend" class="mark-group role-legend"><path d="M46 955h227v29H46Z" aria-hidden="true" class="background" pointer-events="none"/><g class="mark-group role-legend-entry"><g aria-roledescription="group mark container" class="mark-group role-scope" pointer-events="none"><path d="M46 955h226v12.5H46Z" aria-hidden="true" class="background"/><path fill="#306bff" stroke="#306bff" stroke-width="1.5" d="M57 961a5 5 0 1 1-10 0 5 5 0 1 1 10 0" class="mark-symbol role-legend-symbol"/><text fill="#292b2b" class="mark-text role-legend-label" font-family="Matter Semi Mono, Roboto Mono, monospace" font-size="10" transform="translate(62 964)">In the estimator&apos;s family, 2% share</text><path d="M46 971h226v12.5H46Z" aria-hidden="true" class="background"/><path fill="#ff4901" stroke="#ff4901" stroke-width="1.5" d="M57 977a5 5 0 1 1-10 0 5 5 0 1 1 10 0" class="mark-symbol role-legend-symbol"/><text fill="#292b2b" class="mark-text role-legend-label" font-family="Matter Semi Mono, Roboto Mono, monospace" font-size="10" transform="translate(62 980)">Rank-rule battery, 40% share</text></g></g></g><g class="mark-group role-title"><text fill="#292b2b" aria-label="Title text 'On the dashed line, an interval means what it says'" aria-roledescription="title" class="mark-text role-title-text" font-family="Matter XH, DM Sans, sans-serif" font-size="18" pointer-events="none" transform="translate(6 684)">On the dashed line, an interval means what it says</text></g></g><g fill="#292b2b" class="mark-group role-title" font-family="Matter XH, DM Sans, sans-serif" pointer-events="none"><text aria-label="Title text 'Figure 4: A coverage plot shows whether an interval means what it says'" aria-roledescription="title" class="mark-text role-title-text" font-size="18" transform="translate(6 19)">Figure 4: A coverage plot shows whether an interval means what it says</text><text aria-label="Subtitle text 'Each line in the upper two panels is one simulated sum's 90% interval for the battery's power, divided by the true power and sorted by its median; the dashed line is the truth. The lower panel plots, for the 50% and 90% intervals, the share that hold the truth against the nominal level. Below the dashed line, an interval is overconfident.'" aria-roledescription="subtitle" class="mark-text role-title-subtitle" font-size="11" transform="translate(6 38)"><tspan>Each line in the upper two panels is one simulated sum&apos;s 90% interval for the battery&apos;s power, divided by the true</tspan><tspan x="0" dy="13">power and sorted by its median; the dashed line is the truth.</tspan><tspan x="0" dy="13">The lower panel plots, for the 50% and 90% intervals, the share that hold the truth against the nominal level.</tspan><tspan x="0" dy="13">Below the dashed line, an interval is overconfident.</tspan></text></g></g></svg>
