<svg xmlns="http://www.w3.org/2000/svg" width="724" height="371" class="marks" viewBox="0 0 724 371"><path fill="#fffbf5" d="M0 0h724v371H0z"/><g fill="none" stroke-miterlimit="10" aria-roledescription="group mark container" class="mark-group role-frame root"><g aria-roledescription="group mark container" class="mark-group role-row-header row_header"><path d="M35 71v232.5Z" aria-hidden="true" class="background"/><g aria-label="Y-axis titled 'Site' for a discrete scale with 6 values: A, B, C, D, E, F" aria-roledescription="axis" class="mark-group role-axis" pointer-events="none"><path stroke="#292b2b" d="M35.5 93.5h-5m5 38h-5m5 37h-5m5 38h-5m5 37h-5m5 38h-5" class="mark-rule role-axis-tick"/><g fill="#292b2b" class="mark-text role-axis-label" font-family="sans-serif" font-size="10" text-anchor="end"><text transform="translate(28.5 96.5)">A</text><text transform="translate(28.5 134)">B</text><text transform="translate(28.5 171.5)">C</text><text transform="translate(28.5 209)">D</text><text transform="translate(28.5 246.5)">E</text><text transform="translate(28.5 284)">F</text></g><path stroke="#292b2b" d="M35.5 71.5V304" class="mark-rule role-axis-domain"/><text fill="#292b2b" class="mark-text role-axis-title" font-family="sans-serif" font-size="11" font-weight="bold" text-anchor="middle" transform="rotate(-90 101.5 86.2)">Site</text></g></g><g aria-roledescription="group mark container" class="mark-group role-column-header column_header"><path d="M36 70h330z" aria-hidden="true" class="background"/><g class="mark-group role-title"><text fill="#000" aria-label="Title text 'XGBoost'" aria-roledescription="title" class="mark-text role-title-text" font-family="sans-serif" font-size="10" pointer-events="none" text-anchor="middle" transform="translate(201 58)">XGBoost</text></g><path d="M388 70h330z" aria-hidden="true" class="background"/><g class="mark-group role-title"><text fill="#000" aria-label="Title text 'Fitted physical PV model'" aria-roledescription="title" class="mark-text role-title-text" font-family="sans-serif" font-size="10" pointer-events="none" text-anchor="middle" transform="translate(553 58)">Fitted physical PV model</text></g></g><g aria-roledescription="group mark container" class="mark-group role-column-footer column_footer"><path d="M36 305h330z" aria-hidden="true" class="background"/><g aria-label="X-axis titled 'Mean absolute error (% of the site's P99 output)' for a linear scale with values from 0 to 12" aria-roledescription="axis" class="mark-group role-axis" pointer-events="none"><path stroke="#292b2b" d="M36.5 305.5v5m28-5v5m27-5v5m28-5v5m27-5v5m28-5v5m27-5v5m28-5v5m27-5v5m28-5v5m27-5v5m28-5v5m27-5v5" class="mark-rule role-axis-tick"/><g fill="#292b2b" class="mark-text role-axis-label" font-family="sans-serif" font-size="10"><text transform="translate(36.5 320.5)">0</text><text text-anchor="middle" transform="translate(64 320.5)">1</text><text text-anchor="middle" transform="translate(91.5 320.5)">2</text><text text-anchor="middle" transform="translate(119 320.5)">3</text><text text-anchor="middle" transform="translate(146.5 320.5)">4</text><text text-anchor="middle" transform="translate(174 320.5)">5</text><text text-anchor="middle" transform="translate(201.5 320.5)">6</text><text text-anchor="middle" transform="translate(229 320.5)">7</text><text text-anchor="middle" transform="translate(256.5 320.5)">8</text><text text-anchor="middle" transform="translate(284 320.5)">9</text><text text-anchor="middle" transform="translate(311.5 320.5)">10</text><text text-anchor="middle" transform="translate(339 320.5)">11</text><text text-anchor="end" transform="translate(366.5 320.5)">12</text></g><path stroke="#292b2b" d="M36.5 305.5h330" class="mark-rule role-axis-domain"/><text fill="#292b2b" class="mark-text role-axis-title" font-family="sans-serif" font-size="11" font-weight="bold" text-anchor="middle" transform="translate(201.5 335.5)">Mean absolute error (% of the site&apos;s P99 output)</text></g><path d="M388 305h330z" aria-hidden="true" class="background"/><g aria-label="X-axis titled 'Mean absolute error (% of the site's P99 output)' for a linear scale with values from 0 to 12" aria-roledescription="axis" class="mark-group role-axis" pointer-events="none"><path stroke="#292b2b" d="M388.5 305.5v5m28-5v5m27-5v5m28-5v5m27-5v5m28-5v5m27-5v5m28-5v5m27-5v5m28-5v5m27-5v5m28-5v5m27-5v5" class="mark-rule role-axis-tick"/><g fill="#292b2b" class="mark-text role-axis-label" font-family="sans-serif" font-size="10"><text transform="translate(388.5 320.5)">0</text><text text-anchor="middle" transform="translate(416 320.5)">1</text><text text-anchor="middle" transform="translate(443.5 320.5)">2</text><text text-anchor="middle" transform="translate(471 320.5)">3</text><text text-anchor="middle" transform="translate(498.5 320.5)">4</text><text text-anchor="middle" transform="translate(526 320.5)">5</text><text text-anchor="middle" transform="translate(553.5 320.5)">6</text><text text-anchor="middle" transform="translate(581 320.5)">7</text><text text-anchor="middle" transform="translate(608.5 320.5)">8</text><text text-anchor="middle" transform="translate(636 320.5)">9</text><text text-anchor="middle" transform="translate(663.5 320.5)">10</text><text text-anchor="middle" transform="translate(691 320.5)">11</text><text text-anchor="end" transform="translate(718.5 320.5)">12</text></g><path stroke="#292b2b" d="M388.5 305.5h330" class="mark-rule role-axis-domain"/><text fill="#292b2b" class="mark-text role-axis-title" font-family="sans-serif" font-size="11" font-weight="bold" text-anchor="middle" transform="translate(553.5 335.5)">Mean absolute error (% of the site&apos;s P99 output)</text></g></g><g aria-roledescription="group mark container" class="mark-group role-scope cell"><path fill="#fffbf5" d="M36.5 71.5h330V304h-330Z" aria-hidden="true" class="background"/><g aria-hidden="true" class="mark-group role-axis"><path stroke="#eaeaea" d="M36.5 304V71.5m28 232.5V71.5m27 232.5V71.5m28 232.5V71.5m27 232.5V71.5m28 232.5V71.5m27 232.5V71.5m28 232.5V71.5m27 232.5V71.5m28 232.5V71.5m27 232.5V71.5m28 232.5V71.5m27 232.5V71.5" class="mark-rule role-axis-grid" pointer-events="none"/></g><g aria-roledescription="group mark container" class="mark-group role-scope"><path d="M36 78.5h248.5a3 3 0 0 1 3 3v9a3 3 0 0 1-3 3H36z" aria-hidden="true" class="background"/><g clip-path="url(#a)" transform="translate(36 78.5)"><g aria-roledescription="group mark container" class="mark-group role-scope"><path d="M0 0v15Z" aria-hidden="true" class="background"/><g aria-roledescription="rect mark container" class="mark-rect role-mark child_marks"><path fill="#ff4901" d="M0 0h251.5v15H0Z" aria-label="Mean absolute error (% of the site's P99 output): 9.14402116736; Site: A; source_label: ERA5 (31 km reanalysis)" aria-roledescription="bar"/></g></g></g><path d="M36 116h236.5a3 3 0 0 1 3 3v9a3 3 0 0 1-3 3H36z" aria-hidden="true" class="background"/><g clip-path="url(#b)" transform="translate(36 116)"><g aria-roledescription="group mark container" class="mark-group role-scope"><path d="M0 0v15Z" aria-hidden="true" class="background"/><g aria-roledescription="rect mark container" class="mark-rect role-mark child_marks"><path fill="#ff4901" d="M0 0h239.5v15H0Z" aria-label="Mean absolute error (% of the site's P99 output): 8.70975237334; Site: B; source_label: ERA5 (31 km reanalysis)" aria-roledescription="bar"/></g></g></g><path d="M36 153.5h216.2a3 3 0 0 1 3 3v9a3 3 0 0 1-3 3H36z" aria-hidden="true" class="background"/><g clip-path="url(#c)" transform="translate(36 153.5)"><g aria-roledescription="group mark container" class="mark-group role-scope"><path d="M0 0v15Z" aria-hidden="true" class="background"/><g aria-roledescription="rect mark container" class="mark-rect role-mark child_marks"><path fill="#ff4901" d="M0 0h219.2v15H0Z" aria-label="Mean absolute error (% of the site's P99 output): 7.97232288444; Site: C; source_label: ERA5 (31 km reanalysis)" aria-roledescription="bar"/></g></g></g><path d="M36 191h250.3a3 3 0 0 1 3 3v9a3 3 0 0 1-3 3H36z" aria-hidden="true" class="background"/><g clip-path="url(#d)" transform="translate(36 191)"><g aria-roledescription="group mark container" class="mark-group role-scope"><path d="M0 0v15Z" aria-hidden="true" class="background"/><g aria-roledescription="rect mark container" class="mark-rect role-mark child_marks"><path fill="#ff4901" d="M0 0h253.3v15H0Z" aria-label="Mean absolute error (% of the site's P99 output): 9.21029645936; Site: D; source_label: ERA5 (31 km reanalysis)" aria-roledescription="bar"/></g></g></g><path d="M36 228.5h301.7a3 3 0 0 1 3 3v9a3 3 0 0 1-3 3H36z" aria-hidden="true" class="background"/><g clip-path="url(#e)" transform="translate(36 228.5)"><g aria-roledescription="group mark container" class="mark-group role-scope"><path d="M0 0v15Z" aria-hidden="true" class="background"/><g aria-roledescription="rect mark container" class="mark-rect role-mark child_marks"><path fill="#ff4901" d="M0 0h304.7v15H0Z" aria-label="Mean absolute error (% of the site's P99 output): 11.0783149379; Site: E; source_label: ERA5 (31 km reanalysis)" aria-roledescription="bar"/></g></g></g><path d="M36 266h228.3a3 3 0 0 1 3 3v9a3 3 0 0 1-3 3H36z" aria-hidden="true" class="background"/><g clip-path="url(#f)" transform="translate(36 266)"><g aria-roledescription="group mark container" class="mark-group role-scope"><path d="M0 0v15Z" aria-hidden="true" class="background"/><g aria-roledescription="rect mark container" class="mark-rect role-mark child_marks"><path fill="#ff4901" d="M0 0h231.3v15H0Z" aria-label="Mean absolute error (% of the site's P99 output): 8.41073650843; Site: F; source_label: ERA5 (31 km reanalysis)" aria-roledescription="bar"/></g></g></g><path d="M36 93.5h169a3 3 0 0 1 3 3v9a3 3 0 0 1-3 3H36z" aria-hidden="true" class="background"/><g clip-path="url(#g)" transform="translate(36 93.5)"><g aria-roledescription="group mark container" class="mark-group role-scope"><path d="M0 0v15Z" aria-hidden="true" class="background"/><g aria-roledescription="rect mark container" class="mark-rect role-mark child_marks"><path fill="#306bff" d="M0 0h172v15H0Z" aria-label="Mean absolute error (% of the site's P99 output): 6.25425020185; Site: A; source_label: CAMS (5 km satellite retrieval)" aria-roledescription="bar"/></g></g></g><path d="M36 131h160.2a3 3 0 0 1 3 3v9a3 3 0 0 1-3 3H36z" aria-hidden="true" class="background"/><g clip-path="url(#h)" transform="translate(36 131)"><g aria-roledescription="group mark container" class="mark-group role-scope"><path d="M0 0v15Z" aria-hidden="true" class="background"/><g aria-roledescription="rect mark container" class="mark-rect role-mark child_marks"><path fill="#306bff" d="M0 0h163.2v15H0Z" aria-label="Mean absolute error (% of the site's P99 output): 5.93280792893; Site: B; source_label: CAMS (5 km satellite retrieval)" aria-roledescription="bar"/></g></g></g><path d="M36 168.5h138.6a3 3 0 0 1 3 3v9a3 3 0 0 1-3 3H36z" aria-hidden="true" class="background"/><g clip-path="url(#i)" transform="translate(36 168.5)"><g aria-roledescription="group mark container" class="mark-group role-scope"><path d="M0 0v15Z" aria-hidden="true" class="background"/><g aria-roledescription="rect mark container" class="mark-rect role-mark child_marks"><path fill="#306bff" d="M0 0h141.6v15H0Z" aria-label="Mean absolute error (% of the site's P99 output): 5.15074844864; Site: C; source_label: CAMS (5 km satellite retrieval)" aria-roledescription="bar"/></g></g></g><path d="M36 206h163.4a3 3 0 0 1 3 3v9a3 3 0 0 1-3 3H36z" aria-hidden="true" class="background"/><g clip-path="url(#j)" transform="translate(36 206)"><g aria-roledescription="group mark container" class="mark-group role-scope"><path d="M0 0v15Z" aria-hidden="true" class="background"/><g aria-roledescription="rect mark container" class="mark-rect role-mark child_marks"><path fill="#306bff" d="M0 0h166.4v15H0Z" aria-label="Mean absolute error (% of the site's P99 output): 6.0525103613; Site: D; source_label: CAMS (5 km satellite retrieval)" aria-roledescription="bar"/></g></g></g><path d="M36 243.5h276.4a3 3 0 0 1 3 3v9a3 3 0 0 1-3 3H36z" aria-hidden="true" class="background"/><g clip-path="url(#k)" transform="translate(36 243.5)"><g aria-roledescription="group mark container" class="mark-group role-scope"><path d="M0 0v15Z" aria-hidden="true" class="background"/><g aria-roledescription="rect mark container" class="mark-rect role-mark child_marks"><path fill="#306bff" d="M0 0h279.4v15H0Z" aria-label="Mean absolute error (% of the site's P99 output): 10.1599710538; Site: E; source_label: CAMS (5 km satellite retrieval)" aria-roledescription="bar"/></g></g></g><path d="M36 281h135.6a3 3 0 0 1 3 3v9a3 3 0 0 1-3 3H36z" aria-hidden="true" class="background"/><g clip-path="url(#l)" transform="translate(36 281)"><g aria-roledescription="group mark container" class="mark-group role-scope"><path d="M0 0v15Z" aria-hidden="true" class="background"/><g aria-roledescription="rect mark container" class="mark-rect role-mark child_marks"><path fill="#306bff" d="M0 0h138.6v15H0Z" aria-label="Mean absolute error (% of the site's P99 output): 5.04096305142; Site: F; source_label: CAMS (5 km satellite retrieval)" aria-roledescription="bar"/></g></g></g></g><path fill="#fffbf5" d="M388.5 71.5h330V304h-330Z" aria-hidden="true" class="background"/><g aria-hidden="true" class="mark-group role-axis"><path stroke="#eaeaea" d="M388.5 304V71.5m28 232.5V71.5m27 232.5V71.5m28 232.5V71.5m27 232.5V71.5m28 232.5V71.5m27 232.5V71.5m28 232.5V71.5m27 232.5V71.5m28 232.5V71.5m27 232.5V71.5m28 232.5V71.5m27 232.5V71.5" class="mark-rule role-axis-grid" pointer-events="none"/></g><g aria-roledescription="group mark container" class="mark-group role-scope"><path d="M388 78.5h254.1a3 3 0 0 1 3 3v9a3 3 0 0 1-3 3H388z" aria-hidden="true" class="background"/><g clip-path="url(#m)" transform="translate(388 78.5)"><g aria-roledescription="group mark container" class="mark-group role-scope"><path d="M0 0v15Z" aria-hidden="true" class="background"/><g aria-roledescription="rect mark container" class="mark-rect role-mark child_marks"><path fill="#ff4901" d="M0 0h257.1v15H0Z" aria-label="Mean absolute error (% of the site's P99 output): 9.3494069258; Site: A; source_label: ERA5 (31 km reanalysis)" aria-roledescription="bar"/></g></g></g><path d="M388 116h253a3 3 0 0 1 3 3v9a3 3 0 0 1-3 3H388z" aria-hidden="true" class="background"/><g clip-path="url(#n)" transform="translate(388 116)"><g aria-roledescription="group mark container" class="mark-group role-scope"><path d="M0 0v15Z" aria-hidden="true" class="background"/><g aria-roledescription="rect mark container" class="mark-rect role-mark child_marks"><path fill="#ff4901" d="M0 0h256v15H0Z" aria-label="Mean absolute error (% of the site's P99 output): 9.30825966303; Site: B; source_label: ERA5 (31 km reanalysis)" aria-roledescription="bar"/></g></g></g><path d="M388 153.5h228.9a3 3 0 0 1 3 3v9a3 3 0 0 1-3 3H388z" aria-hidden="true" class="background"/><g clip-path="url(#o)" transform="translate(388 153.5)"><g aria-roledescription="group mark container" class="mark-group role-scope"><path d="M0 0v15Z" aria-hidden="true" class="background"/><g aria-roledescription="rect mark container" class="mark-rect role-mark child_marks"><path fill="#ff4901" d="M0 0h231.9v15H0Z" aria-label="Mean absolute error (% of the site's P99 output): 8.43209475589; Site: C; source_label: ERA5 (31 km reanalysis)" aria-roledescription="bar"/></g></g></g><path d="M388 191h272.4a3 3 0 0 1 3 3v9a3 3 0 0 1-3 3H388z" aria-hidden="true" class="background"/><g clip-path="url(#p)" transform="translate(388 191)"><g aria-roledescription="group mark container" class="mark-group role-scope"><path d="M0 0v15Z" aria-hidden="true" class="background"/><g aria-roledescription="rect mark container" class="mark-rect role-mark child_marks"><path fill="#ff4901" d="M0 0h275.4v15H0Z" aria-label="Mean absolute error (% of the site's P99 output): 10.0129211158; Site: D; source_label: ERA5 (31 km reanalysis)" aria-roledescription="bar"/></g></g></g><path d="M388 228.5h284a3 3 0 0 1 3 3v9a3 3 0 0 1-3 3H388z" aria-hidden="true" class="background"/><g clip-path="url(#q)" transform="translate(388 228.5)"><g aria-roledescription="group mark container" class="mark-group role-scope"><path d="M0 0v15Z" aria-hidden="true" class="background"/><g aria-roledescription="rect mark container" class="mark-rect role-mark child_marks"><path fill="#ff4901" d="M0 0h287v15H0Z" aria-label="Mean absolute error (% of the site's P99 output): 10.4359701012; Site: E; source_label: ERA5 (31 km reanalysis)" aria-roledescription="bar"/></g></g></g><path d="M388 266h242a3 3 0 0 1 3 3v9a3 3 0 0 1-3 3H388z" aria-hidden="true" class="background"/><g clip-path="url(#r)" transform="translate(388 266)"><g aria-roledescription="group mark container" class="mark-group role-scope"><path d="M0 0v15Z" aria-hidden="true" class="background"/><g aria-roledescription="rect mark container" class="mark-rect role-mark child_marks"><path fill="#ff4901" d="M0 0h245v15H0Z" aria-label="Mean absolute error (% of the site's P99 output): 8.90730824488; Site: F; source_label: ERA5 (31 km reanalysis)" aria-roledescription="bar"/></g></g></g><path d="M388 93.5h192.3a3 3 0 0 1 3 3v9a3 3 0 0 1-3 3H388z" aria-hidden="true" class="background"/><g clip-path="url(#s)" transform="translate(388 93.5)"><g aria-roledescription="group mark container" class="mark-group role-scope"><path d="M0 0v15Z" aria-hidden="true" class="background"/><g aria-roledescription="rect mark container" class="mark-rect role-mark child_marks"><path fill="#306bff" d="M0 0h195.3v15H0Z" aria-label="Mean absolute error (% of the site's P99 output): 7.10018703047; Site: A; source_label: CAMS (5 km satellite retrieval)" aria-roledescription="bar"/></g></g></g><path d="M388 131h184.7a3 3 0 0 1 3 3v9a3 3 0 0 1-3 3H388z" aria-hidden="true" class="background"/><g clip-path="url(#t)" transform="translate(388 131)"><g aria-roledescription="group mark container" class="mark-group role-scope"><path d="M0 0v15Z" aria-hidden="true" class="background"/><g aria-roledescription="rect mark container" class="mark-rect role-mark child_marks"><path fill="#306bff" d="M0 0h187.7v15H0Z" aria-label="Mean absolute error (% of the site's P99 output): 6.82446490753; Site: B; source_label: CAMS (5 km satellite retrieval)" aria-roledescription="bar"/></g></g></g><path d="M388 168.5h168a3 3 0 0 1 3 3v9a3 3 0 0 1-3 3H388z" aria-hidden="true" class="background"/><g clip-path="url(#u)" transform="translate(388 168.5)"><g aria-roledescription="group mark container" class="mark-group role-scope"><path d="M0 0v15Z" aria-hidden="true" class="background"/><g aria-roledescription="rect mark container" class="mark-rect role-mark child_marks"><path fill="#306bff" d="M0 0h171v15H0Z" aria-label="Mean absolute error (% of the site's P99 output): 6.21780467522; Site: C; source_label: CAMS (5 km satellite retrieval)" aria-roledescription="bar"/></g></g></g><path d="M388 206h197.8a3 3 0 0 1 3 3v9a3 3 0 0 1-3 3H388z" aria-hidden="true" class="background"/><g clip-path="url(#v)" transform="translate(388 206)"><g aria-roledescription="group mark container" class="mark-group role-scope"><path d="M0 0v15Z" aria-hidden="true" class="background"/><g aria-roledescription="rect mark container" class="mark-rect role-mark child_marks"><path fill="#306bff" d="M0 0h200.8v15H0Z" aria-label="Mean absolute error (% of the site's P99 output): 7.30020178066; Site: D; source_label: CAMS (5 km satellite retrieval)" aria-roledescription="bar"/></g></g></g><path d="M388 243.5h262a3 3 0 0 1 3 3v9a3 3 0 0 1-3 3H388z" aria-hidden="true" class="background"/><g clip-path="url(#w)" transform="translate(388 243.5)"><g aria-roledescription="group mark container" class="mark-group role-scope"><path d="M0 0v15Z" aria-hidden="true" class="background"/><g aria-roledescription="rect mark container" class="mark-rect role-mark child_marks"><path fill="#306bff" d="M0 0h265v15H0Z" aria-label="Mean absolute error (% of the site's P99 output): 9.63836509119; Site: E; source_label: CAMS (5 km satellite retrieval)" aria-roledescription="bar"/></g></g></g><path d="M388 281h163.8a3 3 0 0 1 3 3v9a3 3 0 0 1-3 3H388z" aria-hidden="true" class="background"/><g clip-path="url(#x)" transform="translate(388 281)"><g aria-roledescription="group mark container" class="mark-group role-scope"><path d="M0 0v15Z" aria-hidden="true" class="background"/><g aria-roledescription="rect mark container" class="mark-rect role-mark child_marks"><path fill="#306bff" d="M0 0h166.8v15H0Z" aria-label="Mean absolute error (% of the site's P99 output): 6.06363906168; Site: F; source_label: CAMS (5 km satellite retrieval)" aria-roledescription="bar"/></g></g></g></g></g><g aria-label="Symbol legend for fill color with 2 values: ERA5 (31 km reanalysis), CAMS (5 km satellite retrieval)" aria-roledescription="legend" class="mark-group role-legend"><path d="M36 355h289v11H36Z" aria-hidden="true" class="background" pointer-events="none"/><g class="mark-group role-legend-entry"><g aria-roledescription="group mark container" class="mark-group role-scope" pointer-events="none"><path d="M36 355h126.6v11H36Z" aria-hidden="true" class="background"/><path fill="#ff4901" d="M37 356h10v10H37Z" class="mark-symbol role-legend-symbol"/><text fill="#292b2b" class="mark-text role-legend-label" font-family="sans-serif" font-size="10" transform="translate(52 364)">ERA5 (31 km reanalysis)</text><path d="M173 355h151v11H173Z" aria-hidden="true" class="background"/><path fill="#306bff" d="M174 356h10v10h-10Z" class="mark-symbol role-legend-symbol"/><text fill="#292b2b" class="mark-text role-legend-label" font-family="sans-serif" font-size="10" transform="translate(189 364)">CAMS (5 km satellite retrieval)</text></g></g></g><g fill="#000" class="mark-group role-title" font-family="sans-serif" pointer-events="none"><text aria-label="Title text 'Error level of each setup, per site'" aria-roledescription="title" class="mark-text role-title-text" font-size="13" font-weight="bold" transform="translate(5.8 15)">Error level of each setup, per site</text><text aria-label="Subtitle text 'Each setup given the product's own split. Lower is better. Site labels are shuffled and the error normalised, because these meters are commercially sensitive.'" aria-roledescription="subtitle" class="mark-text role-title-subtitle" font-size="12" transform="translate(5.8 30)"><tspan>Each setup given the product&apos;s own split. Lower is better.</tspan><tspan x="0" dy="14">Site labels are shuffled and the error normalised, because these meters are commercially sensitive.</tspan></text></g></g><defs><clipPath id="a"><path d="M0 0h248.5a3 3 0 0 1 3 3v9a3 3 0 0 1-3 3H0z"/></clipPath><clipPath id="b"><path d="M0 0h236.5a3 3 0 0 1 3 3v9a3 3 0 0 1-3 3H0z"/></clipPath><clipPath id="c"><path d="M0 0h216.2a3 3 0 0 1 3 3v9a3 3 0 0 1-3 3H0z"/></clipPath><clipPath id="d"><path d="M0 0h250.3a3 3 0 0 1 3 3v9a3 3 0 0 1-3 3H0z"/></clipPath><clipPath id="e"><path d="M0 0h301.7a3 3 0 0 1 3 3v9a3 3 0 0 1-3 3H0z"/></clipPath><clipPath id="f"><path d="M0 0h228.3a3 3 0 0 1 3 3v9a3 3 0 0 1-3 3H0z"/></clipPath><clipPath id="g"><path d="M0 0h169a3 3 0 0 1 3 3v9a3 3 0 0 1-3 3H0z"/></clipPath><clipPath id="h"><path d="M0 0h160.2a3 3 0 0 1 3 3v9a3 3 0 0 1-3 3H0z"/></clipPath><clipPath id="i"><path d="M0 0h138.6a3 3 0 0 1 3 3v9a3 3 0 0 1-3 3H0z"/></clipPath><clipPath id="j"><path d="M0 0h163.4a3 3 0 0 1 3 3v9a3 3 0 0 1-3 3H0z"/></clipPath><clipPath id="k"><path d="M0 0h276.4a3 3 0 0 1 3 3v9a3 3 0 0 1-3 3H0z"/></clipPath><clipPath id="l"><path d="M0 0h135.6a3 3 0 0 1 3 3v9a3 3 0 0 1-3 3H0z"/></clipPath><clipPath id="m"><path d="M0 0h254.1a3 3 0 0 1 3 3v9a3 3 0 0 1-3 3H0z"/></clipPath><clipPath id="n"><path d="M0 0h253a3 3 0 0 1 3 3v9a3 3 0 0 1-3 3H0z"/></clipPath><clipPath id="o"><path d="M0 0h228.9a3 3 0 0 1 3 3v9a3 3 0 0 1-3 3H0z"/></clipPath><clipPath id="p"><path d="M0 0h272.4a3 3 0 0 1 3 3v9a3 3 0 0 1-3 3H0z"/></clipPath><clipPath id="q"><path d="M0 0h284a3 3 0 0 1 3 3v9a3 3 0 0 1-3 3H0z"/></clipPath><clipPath id="r"><path d="M0 0h242a3 3 0 0 1 3 3v9a3 3 0 0 1-3 3H0z"/></clipPath><clipPath id="s"><path d="M0 0h192.3a3 3 0 0 1 3 3v9a3 3 0 0 1-3 3H0z"/></clipPath><clipPath id="t"><path d="M0 0h184.7a3 3 0 0 1 3 3v9a3 3 0 0 1-3 3H0z"/></clipPath><clipPath id="u"><path d="M0 0h168a3 3 0 0 1 3 3v9a3 3 0 0 1-3 3H0z"/></clipPath><clipPath id="v"><path d="M0 0h197.8a3 3 0 0 1 3 3v9a3 3 0 0 1-3 3H0z"/></clipPath><clipPath id="w"><path d="M0 0h262a3 3 0 0 1 3 3v9a3 3 0 0 1-3 3H0z"/></clipPath><clipPath id="x"><path d="M0 0h163.8a3 3 0 0 1 3 3v9a3 3 0 0 1-3 3H0z"/></clipPath></defs></svg>