<svg xmlns="http://www.w3.org/2000/svg" width="748" height="645" class="marks" viewBox="0 0 748 645"><path fill="#fffbf5" d="M0 0h748v645H0z"/><g fill="none" stroke-miterlimit="10" aria-roledescription="group mark container" class="mark-group role-frame root"><path d="M253 129h380z" aria-hidden="true" class="background"/><g aria-roledescription="group mark container" class="mark-group role-scope concat_0_group"><path fill="#fffbf5" d="M253 129h380v104H253Z" aria-hidden="true" class="background"/><g aria-hidden="true" class="mark-group role-axis"><path stroke="#eaeaea" d="M348.5 233.5v-104m119 104v-104m119 104v-104" class="mark-rule role-axis-grid" pointer-events="none"/></g><g aria-label="X-axis titled 'Mean absolute error (% of capacity; smaller is better)' for a linear scale with values from 6.0 to 22.0" aria-roledescription="axis" class="mark-group role-axis" pointer-events="none"><path stroke="#292b2b" d="M348.5 233.5v5m119-5v5m119-5v5" class="mark-rule role-axis-tick"/><g fill="#292b2b" class="mark-text role-axis-label" font-family="Matter Semi Mono, Roboto Mono, monospace" font-size="10" text-anchor="middle"><text transform="translate(348.5 248.5)">10.0</text><text transform="translate(467.3 248.5)">15.0</text><text transform="translate(586 248.5)">20.0</text></g><path stroke="#292b2b" d="M253.5 233.5h380" class="mark-rule role-axis-domain"/><text fill="#292b2b" class="mark-text role-axis-title" font-family="Matter XH, DM Sans, sans-serif" font-size="11" text-anchor="middle" transform="translate(443.5 263.5)">Mean absolute error (% of capacity; smaller is better)</text></g><g aria-label="Y-axis for a discrete scale with 4 values: ERA5 wind, ERA5 wind, shuffled (control), UKV-CEDA wind, UKV-CEDA wind, shuffled (control)" aria-roledescription="axis" class="mark-group role-axis" pointer-events="none"><path stroke="#292b2b" d="M253.5 142.5h-5m5 26h-5m5 26h-5m5 26h-5" class="mark-rule role-axis-tick"/><g fill="#292b2b" class="mark-text role-axis-label" font-family="Matter Semi Mono, Roboto Mono, monospace" font-size="10" text-anchor="end"><text transform="translate(246.5 145)">ERA5 wind</text><text transform="translate(246.5 171)">ERA5 wind, shuffled (control)</text><text transform="translate(246.5 197)">UKV-CEDA wind</text><text transform="translate(246.5 223)">UKV-CEDA wind, shuffled (control)</text></g><path stroke="#292b2b" d="M253.5 129.5v104" class="mark-rule role-axis-domain"/></g><g aria-roledescription="rule mark container" class="mark-rule role-mark concat_0_layer_0_marks"><path stroke="#306bff" d="M272.5 142h17" aria-label="Mean absolute error (% of capacity; smaller is better): 6.8; label: ERA5 wind; upper: 7.537; product: ERA5" aria-roledescription="rule mark"/><path stroke="#306bff" d="M545.6 168h60.8" aria-label="Mean absolute error (% of capacity; smaller is better): 18.3; label: ERA5 wind, shuffled (control); upper: 20.88; product: ERA5" aria-roledescription="rule mark"/><path stroke="#ff4901" d="M274.7 194H293" aria-label="Mean absolute error (% of capacity; smaller is better): 6.9; label: UKV-CEDA wind; upper: 7.687; product: UKV-CEDA" aria-roledescription="rule mark"/><path stroke="#ff4901" d="M546.7 220H608" aria-label="Mean absolute error (% of capacity; smaller is better): 18.4; label: UKV-CEDA wind, shuffled (control); upper: 20.946; product: UKV-CEDA" aria-roledescription="rule mark"/></g><g aria-roledescription="symbol mark container" class="mark-symbol role-mark concat_0_layer_1_marks"><path fill="#306bff" d="M284.8 142a3.9 3.9 0 1 1-7.8 0 3.9 3.9 0 1 1 7.8 0" aria-label="value: 7.174; label: ERA5 wind; product: ERA5" aria-roledescription="point" opacity=".7"/><path fill="#306bff" d="M579.6 168a3.9 3.9 0 1 1-7.7 0 3.9 3.9 0 1 1 7.7 0" aria-label="value: 19.589; label: ERA5 wind, shuffled (control); product: ERA5" aria-roledescription="point" opacity=".7"/><path fill="#ff4901" d="M287.7 194a3.9 3.9 0 1 1-7.7 0 3.9 3.9 0 1 1 7.7 0" aria-label="value: 7.299; label: UKV-CEDA wind; product: UKV-CEDA" aria-roledescription="point" opacity=".7"/><path fill="#ff4901" d="M580.8 220a3.9 3.9 0 1 1-7.8 0 3.9 3.9 0 1 1 7.8 0" aria-label="value: 19.637; label: UKV-CEDA wind, shuffled (control); product: UKV-CEDA" aria-roledescription="point" opacity=".7"/></g><g class="mark-group role-title"><text fill="#292b2b" aria-label="Title text 'Wind farms: as-available arms (ERA5 100 m and 10 m; UKV-CEDA 10 m and 925 hPa)'" aria-roledescription="title" class="mark-text role-title-text" font-family="Matter XH, DM Sans, sans-serif" font-size="18" pointer-events="none" transform="translate(48 121)">Wind farms: as-available arms (ERA5 100 m and 10 m; UKV-CEDA 10 m and 925 hPa)</text></g></g><g aria-roledescription="group mark container" class="mark-group role-scope concat_1_group"><path fill="#fffbf5" d="M253 327h380v52H253Z" aria-hidden="true" class="background"/><g aria-hidden="true" class="mark-group role-axis"><path stroke="#eaeaea" d="M280.5 379.5v-52m54 52v-52m55 52v-52m54 52v-52m54 52v-52m55 52v-52m54 52v-52" class="mark-rule role-axis-grid" pointer-events="none"/></g><g aria-label="X-axis titled 'Mean absolute error (% of capacity; smaller is better)' for a linear scale with values from 6.9 to 8.3" aria-roledescription="axis" class="mark-group role-axis" pointer-events="none"><path stroke="#292b2b" d="M280.5 379.5v5m54-5v5m55-5v5m54-5v5m54-5v5m55-5v5m54-5v5" class="mark-rule role-axis-tick"/><g fill="#292b2b" class="mark-text role-axis-label" font-family="Matter Semi Mono, Roboto Mono, monospace" font-size="10" text-anchor="middle"><text transform="translate(280.6 394.5)">7.0</text><text transform="translate(335 394.5)">7.2</text><text transform="translate(389.2 394.5)">7.4</text><text transform="translate(443.5 394.5)">7.6</text><text transform="translate(497.8 394.5)">7.8</text><text transform="translate(552 394.5)">8.0</text><text transform="translate(606.4 394.5)">8.2</text></g><path stroke="#292b2b" d="M253.5 379.5h380" class="mark-rule role-axis-domain"/><text fill="#292b2b" class="mark-text role-axis-title" font-family="Matter XH, DM Sans, sans-serif" font-size="11" text-anchor="middle" transform="translate(443.5 409.5)">Mean absolute error (% of capacity; smaller is better)</text></g><g aria-label="Y-axis for a discrete scale with 2 values: ERA5 10 m wind, UKV-CEDA 10 m wind" aria-roledescription="axis" class="mark-group role-axis" pointer-events="none"><path stroke="#292b2b" d="M253.5 340.5h-5m5 26h-5" class="mark-rule role-axis-tick"/><g fill="#292b2b" class="mark-text role-axis-label" font-family="Matter Semi Mono, Roboto Mono, monospace" font-size="10" text-anchor="end"><text transform="translate(246.5 343)">ERA5 10 m wind</text><text transform="translate(246.5 369)">UKV-CEDA 10 m wind</text></g><path stroke="#292b2b" d="M253.5 327.5v52" class="mark-rule role-axis-domain"/></g><g aria-roledescription="rule mark container" class="mark-rule role-mark concat_1_layer_0_marks"><path stroke="#306bff" d="M267.4 340h199.2" aria-label="Mean absolute error (% of capacity; smaller is better): 7.0; label: ERA5 10 m wind; upper: 7.687; product: ERA5" aria-roledescription="rule mark"/><path stroke="#ff4901" d="M391.2 366h222.3" aria-label="Mean absolute error (% of capacity; smaller is better): 7.4; label: UKV-CEDA 10 m wind; upper: 8.228; product: UKV-CEDA" aria-roledescription="rule mark"/></g><g aria-roledescription="symbol mark container" class="mark-symbol role-mark concat_1_layer_1_marks"><path fill="#306bff" d="M368.7 340a3.9 3.9 0 1 1-7.7 0 3.9 3.9 0 1 1 7.7 0" aria-label="value: 7.312; label: ERA5 10 m wind; product: ERA5" aria-roledescription="point" opacity=".7"/><path fill="#ff4901" d="M505.8 366a3.9 3.9 0 1 1-7.8 0 3.9 3.9 0 1 1 7.8 0" aria-label="value: 7.817; label: UKV-CEDA 10 m wind; product: UKV-CEDA" aria-roledescription="point" opacity=".7"/></g><g class="mark-group role-title"><text fill="#292b2b" aria-label="Title text 'Wind farms: matched 10 m arms (post hoc)'" aria-roledescription="title" class="mark-text role-title-text" font-family="Matter XH, DM Sans, sans-serif" font-size="18" pointer-events="none" transform="translate(138 319)">Wind farms: matched 10 m arms (post hoc)</text></g></g><g aria-roledescription="group mark container" class="mark-group role-scope concat_2_group"><path fill="#fffbf5" d="M253 473h380v104H253Z" aria-hidden="true" class="background"/><g aria-hidden="true" class="mark-group role-axis"><path stroke="#eaeaea" d="M253.5 577.5v-104m95 104v-104m95 104v-104m95 104v-104m95 104v-104" class="mark-rule role-axis-grid" pointer-events="none"/></g><g aria-label="X-axis titled 'Mean absolute error (% of capacity; smaller is better)' for a linear scale with values from 4.7 to 5.1" aria-roledescription="axis" class="mark-group role-axis" pointer-events="none"><path stroke="#292b2b" d="M253.5 577.5v5m95-5v5m95-5v5m95-5v5m95-5v5" class="mark-rule role-axis-tick"/><g fill="#292b2b" class="mark-text role-axis-label" font-family="Matter Semi Mono, Roboto Mono, monospace" font-size="10"><text transform="translate(253.5 592.5)">4.7</text><text text-anchor="middle" transform="translate(348.5 592.5)">4.8</text><text text-anchor="middle" transform="translate(443.5 592.5)">4.9</text><text text-anchor="middle" transform="translate(538.5 592.5)">5.0</text><text text-anchor="end" transform="translate(633.5 592.5)">5.1</text></g><path stroke="#292b2b" d="M253.5 577.5h380" class="mark-rule role-axis-domain"/><text fill="#292b2b" class="mark-text role-axis-title" font-family="Matter XH, DM Sans, sans-serif" font-size="11" text-anchor="middle" transform="translate(443.5 607.5)">Mean absolute error (% of capacity; smaller is better)</text></g><g aria-label="Y-axis for a discrete scale with 4 values: ERA5 temperature, ERA5 temperature, shuffled (control), UKV-CEDA temperature, UKV-CEDA temperature, shuffled (control)" aria-roledescription="axis" class="mark-group role-axis" pointer-events="none"><path stroke="#292b2b" d="M253.5 486.5h-5m5 26h-5m5 26h-5m5 26h-5" class="mark-rule role-axis-tick"/><g fill="#292b2b" class="mark-text role-axis-label" font-family="Matter Semi Mono, Roboto Mono, monospace" font-size="10" text-anchor="end"><text transform="translate(246.5 489)">ERA5 temperature</text><text transform="translate(246.5 515)">ERA5 temperature, shuffled (control)</text><text transform="translate(246.5 541)">UKV-CEDA temperature</text><text transform="translate(246.5 567)">UKV-CEDA temperature, shuffled (control)</text></g><path stroke="#292b2b" d="M253.5 473.5v104" class="mark-rule role-axis-domain"/></g><g aria-roledescription="rule mark container" class="mark-rule role-mark concat_2_layer_0_marks"><path stroke="#306bff" d="M261.5 486H577" aria-label="Mean absolute error (% of capacity; smaller is better): 4.7; label: ERA5 temperature; upper: 5.041; product: ERA5" aria-roledescription="rule mark"/><path stroke="#306bff" d="M285.3 512h312.6" aria-label="Mean absolute error (% of capacity; smaller is better): 4.7; label: ERA5 temperature, shuffled (control); upper: 5.063; product: ERA5" aria-roledescription="rule mark"/><path stroke="#ff4901" d="M257.7 538H577" aria-label="Mean absolute error (% of capacity; smaller is better): 4.7; label: UKV-CEDA temperature; upper: 5.041; product: UKV-CEDA" aria-roledescription="rule mark"/><path stroke="#ff4901" d="M290 564h310.7" aria-label="Mean absolute error (% of capacity; smaller is better): 4.7; label: UKV-CEDA temperature, shuffled (control); upper: 5.066; product: UKV-CEDA" aria-roledescription="rule mark"/></g><g aria-roledescription="symbol mark container" class="mark-symbol role-mark concat_2_layer_1_marks"><path fill="#306bff" d="M425 486a3.9 3.9 0 1 1-7.7 0 3.9 3.9 0 1 1 7.7 0" aria-label="value: 4.877; label: ERA5 temperature; product: ERA5" aria-roledescription="point" opacity=".7"/><path fill="#306bff" d="M445 512a3.9 3.9 0 1 1-7.8 0 3.9 3.9 0 1 1 7.8 0" aria-label="value: 4.898; label: ERA5 temperature, shuffled (control); product: ERA5" aria-roledescription="point" opacity=".7"/><path fill="#ff4901" d="M424 538a3.9 3.9 0 1 1-7.7 0 3.9 3.9 0 1 1 7.8 0" aria-label="value: 4.876; label: UKV-CEDA temperature; product: UKV-CEDA" aria-roledescription="point" opacity=".7"/><path fill="#ff4901" d="M448.8 564a3.9 3.9 0 1 1-7.8 0 3.9 3.9 0 1 1 7.8 0" aria-label="value: 4.902; label: UKV-CEDA temperature, shuffled (control); product: UKV-CEDA" aria-roledescription="point" opacity=".7"/></g><g class="mark-group role-title"><text fill="#292b2b" aria-label="Title text 'Solar farms: temperature arms'" aria-roledescription="title" class="mark-text role-title-text" font-family="Matter XH, DM Sans, sans-serif" font-size="18" pointer-events="none" transform="translate(6 465)">Solar farms: temperature arms</text></g></g><g aria-label="Symbol legend for fill color and stroke color with 2 values: ERA5, UKV-CEDA" aria-roledescription="legend" class="mark-group role-legend"><path d="M253 627h117v13H253Z" aria-hidden="true" class="background" pointer-events="none"/><g class="mark-group role-legend-entry"><g aria-roledescription="group mark container" class="mark-group role-scope" pointer-events="none"><path d="M253 627.3h40v12.5h-40Z" aria-hidden="true" class="background"/><path fill="#306bff" stroke="#306bff" stroke-width="1.5" d="M264 633.3a5 5 0 1 1-10 0 5 5 0 1 1 10 0" class="mark-symbol role-legend-symbol"/><text fill="#292b2b" class="mark-text role-legend-label" font-family="Matter Semi Mono, Roboto Mono, monospace" font-size="10" transform="translate(269 636.3)">ERA5</text><path d="M305 627.3h64v12.5h-64Z" aria-hidden="true" class="background"/><path fill="#ff4901" stroke="#ff4901" stroke-width="1.5" d="M316 633.3a5 5 0 1 1-10 0 5 5 0 1 1 10 0" class="mark-symbol role-legend-symbol"/><text fill="#292b2b" class="mark-text role-legend-label" font-family="Matter Semi Mono, Roboto Mono, monospace" font-size="10" transform="translate(321 636.3)">UKV-CEDA</text></g></g></g><g fill="#292b2b" class="mark-group role-title" font-family="Matter XH, DM Sans, sans-serif" pointer-events="none"><text aria-label="Title text 'Figure 4: An XGBoost model given weather that has been shuffled errs about 12 points more than one given the real weather'" aria-roledescription="title" class="mark-text role-title-text" font-size="18" transform="translate(6 19)"><tspan>Figure 4: An XGBoost model given weather that has been shuffled errs</tspan><tspan x="0" dy="20">about 12 points more than one given the real weather</tspan></text><text aria-label="Subtitle text 'Dot: mean absolute error at the primary setting. Line: 95% interval from resampling whole calendar months and a fitting seed. Smaller is better. Rows are scored on the same hours within each panel.'" aria-roledescription="subtitle" class="mark-text role-title-subtitle" font-size="11" transform="translate(6 55)"><tspan>Dot: mean absolute error at the primary setting. Line: 95% interval from resampling whole</tspan><tspan x="0" dy="13">calendar months and a fitting seed. Smaller is better. Rows are scored on the same hours</tspan><tspan x="0" dy="13">within each panel.</tspan></text></g></g></svg>
